<?xml version="1.0" encoding="utf-8"?>
<!-- Generator: Adobe Illustrator 16.0.0, SVG Export Plug-In . SVG Version: 6.00 Build 0)  -->
<!DOCTYPE svg PUBLIC "-//W3C//DTD SVG 1.1//EN" "http://www.w3.org/Graphics/SVG/1.1/DTD/svg11.dtd">
<svg version="1.1" id="Objects" xmlns="http://www.w3.org/2000/svg" xmlns:xlink="http://www.w3.org/1999/xlink" x="0px" y="0px"
	 width="800px" height="672.366px" viewBox="0 0 800 672.366" enable-background="new 0 0 800 672.366" xml:space="preserve">
<g>
	<g>
		<path fill="#2196F3" d="M558.878,365.127c-0.747-8.488-16.517-7.921-16.517-7.921l-84.872,3.111
			c-0.569-2.547-3.681-13.297-3.681-13.297s57.148-0.282,81.2-1.979c24.046-1.699,21.557-14.78,21.557-14.78
			s2.795-108.128,2.236-128.804c-0.557-20.675-5.309-98.628-7.264-114.834c-1.959-16.206-1.957-36.601-18.163-42.469
			c-16.204-5.868-33.246-9.778-45.26-10.896s-108.411,0-147.527,6.706c-39.115,6.705-61.748,12.296-74.042,36.045
			c-12.293,23.749-19.558,21.794-19.558,21.794c-9.221,1.396-39.954,8.941-45.543,11.734c-5.589,2.794-14.529,13.132-16.763,22.353
			c-2.235,9.22,4.469,7.823,4.469,7.823c-12.573,25.426-16.038,61.189-16.038,61.189c-7.178,1.97-14.427,4.898-21.276,8.185v-37.555
			c0-2.338-1.896-4.235-4.236-4.235h-11.299c-2.339,0-4.237,1.896-4.237,4.235v47.279c0,0.38,0.068,0.742,0.162,1.093
			c-11.07,6.853-18.53,12.687-18.53,12.687c-10.007,8.965-16.718,18.979-21.191,28.739c6.365-7.966,16.164-11.854,48.643-12.434
			c39.868-0.711,75.464-3.56,114.619,0c39.156,3.56,31.323,23.024,31.323,35.718c0,12.692-7.831,68.22-15.661,87.445
			c-3.371,8.27-3.552,12.411-5.842,14.56c24.377,2.904,129.475-1.402,129.475-1.402c3.778-16.127,5.142-19.183,7.973-27.955
			c2.827-8.77,25.672-45.55,43.416-5.995c17.407,38.795,11.318,94.78,11.318,94.78c5.657-0.282,24.049-3.112,24.049-3.112
			s47.813-14.147,63.374-18.675c15.562-4.526,13.687-13.017,13.687-13.017S559.62,373.615,558.878,365.127z M529.83,170.534
			c0,0,0.157-2.987,2.988-1.572c2.827,1.414,10.06,5.659,10.06,5.659s1.885,1.101,1.885,6.446c0,5.345,0,41.974,0,41.974
			s0.315,3.774-3.929,3.774c-4.243,0-6.122-0.538-8.016-1.259c-1.795-0.681-2.204-0.943-2.988-7.074
			C529.044,212.351,529.83,170.534,529.83,170.534z M469.526,141.225c3.706,1.413,12.354,6,12.354,6s2.648,2.646,2.823,8.646
			c0.176,6,0,10.236,0,10.236h-18.379l0.027-6.706v-15.706C466.353,143.695,465.821,139.813,469.526,141.225z M391.58,361.077
			c-2,10.466-8.312,22.164-27.089,21.551c-18.78-0.617-84.81,6.157-78.191-9.546c0,0,2.923-12.313,24.779-16.776
			c21.858-4.464,70.958-4.927,70.958-4.927S393.581,350.61,391.58,361.077z M427.516,193.747c0,0-212.48-2.62-250.786,6.548
			c0,0,3.603-48.455,20.626-68.753c0,0,219.029-19.971,253.406-6.875C450.762,124.667,433.409,175.739,427.516,193.747z
			 M442.604,226.277c-2.458-28.813,1.565-44.001,9.379-68.572c7.822-24.569,11.842-18.315,11.842-18.315l-1.342,60.905
			C462.482,240.202,442.604,226.277,442.604,226.277z"/>
		<path fill="#2196F3" d="M83.576,309.851c-12.081,7.371-19.723,23.612-24.432,38.835c4.986-0.056,21.635,0.311,24.872,7.62
			c3.819,8.619,2.647,18.778-2.895,20.009c-4.785,1.064-23.108-0.546-28.018-1.004c-0.646,4.214-0.9,6.803-0.9,6.803L97.261,383
			c-4.536-5.126-11.017-19.709-13.244-61.054C84.017,321.946,83.7,316.927,83.576,309.851z"/>
		<path fill="#2196F3" d="M564.841,201.458c0.561,20.675-2.234,128.804-2.234,128.804s0.646,3.391-1.892,6.941l21.773,0.426V46.533
			l-35.689,2.191c8.889,8.627,9.178,24.662,10.774,37.9C559.53,102.829,564.282,180.783,564.841,201.458z"/>
		<path fill="#2196F3" d="M102.397,374.372h22.595c2.34,0,4.235-1.897,4.235-4.234v-95.055c0-2.338-1.896-4.235-4.235-4.235h-22.595
			c-2.338,0-4.234,1.897-4.234,4.235v95.055C98.163,372.474,100.06,374.372,102.397,374.372z"/>
		<path fill="#2196F3" d="M229.616,374.372h29.334c2.339,0,4.234-1.897,4.234-4.234v-95.055c0-2.338-1.896-4.235-4.234-4.235
			h-29.334c-2.339,0-4.235,1.897-4.235,4.235v95.055C225.381,372.474,227.277,374.372,229.616,374.372z"/>
		<path fill="#2196F3" d="M137.9,374.372h30.978c2.339,0,4.235-1.897,4.235-4.234v-95.055c0-2.338-1.896-4.235-4.235-4.235H137.9
			c-2.339,0-4.236,1.897-4.236,4.235v95.055C133.664,372.474,135.562,374.372,137.9,374.372z"/>
		<path fill="#2196F3" d="M183.265,374.372h30.978c2.341,0,4.236-1.897,4.236-4.234v-95.055c0-2.338-1.896-4.235-4.236-4.235
			h-30.978c-2.34,0-4.235,1.897-4.235,4.235v95.055C179.029,372.474,180.925,374.372,183.265,374.372z"/>
		<path fill="#2196F3" d="M333.505,395.567c-10.045,0-155.844-3.345-199.841-4.834c-43.996-1.487-85.438-4.471-85.438-4.471
			c-1.859,8.918-1.116,59.784-1.116,59.784c3.466,2.117,18.337,3.922,36.916,5.396c5.287,36.802,23.276,63.906,44.671,63.906
			c20.499,0,37.872-24.895,43.938-59.358c4.053,0.135,6.395,0.204,6.395,0.204s130.67,3.721,149.268,3.721
			c18.597,0,32.358-2.233,32.358-2.233l32.377-1.753c-3.013-31.309,2.029-65.013,2.029-65.013
			C391.529,391.468,343.548,395.567,333.505,395.567z M98.973,421.689l25.143,1.119c2.644,0.117,4.693,2.355,4.576,5.001
			l-0.599,13.446c-0.117,2.645-2.356,4.692-5.002,4.575l-25.14-1.117c-2.645-0.118-4.693-2.355-4.575-5.002l0.598-13.446
			C94.092,423.621,96.329,421.572,98.973,421.689z M79.134,442.759l-14.154-0.815c-2.335-0.134-4.12-2.135-3.985-4.471l0.785-13.633
			c0.135-2.335,2.136-4.122,4.471-3.986l14.154,0.814c2.335,0.133,4.119,2.137,3.985,4.471l-0.785,13.636
			C83.472,441.111,81.469,442.893,79.134,442.759z M207.595,444.935c-0.073,2.646-2.276,4.729-4.922,4.658l-59.84-1.652
			c-2.646-0.076-4.732-2.278-4.658-4.924l0.399-14.516c0.073-2.645,2.279-4.73,4.925-4.656l59.839,1.652
			c2.646,0.071,4.732,2.275,4.658,4.924L207.595,444.935z M257.825,448.257c-0.074,3.012-2.575,5.39-5.588,5.315l-28.625-0.706
			c-3.011-0.074-5.392-2.577-5.317-5.586l0.378-15.312c0.074-3.01,2.575-5.392,5.586-5.316l28.625,0.706
			c3.013,0.074,5.393,2.575,5.317,5.587L257.825,448.257z M308.241,449.295c0,2.647-2.144,4.793-4.79,4.793h-26.034
			c-2.646,0-4.791-2.146-4.791-4.793v-15.453c0-2.648,2.145-4.792,4.791-4.792h26.034c2.646,0,4.79,2.144,4.79,4.792V449.295z"/>
		<ellipse fill="#2196F3" cx="425.396" cy="429.048" rx="27.469" ry="86.301"/>
		<path fill="#2196F3" d="M589.565,343.268c-6.482,0-11.739,23.631-11.739,52.78c0,29.15,5.257,52.781,11.739,52.781
			c6.487,0,11.742-23.631,11.742-52.781C601.308,366.899,596.053,343.268,589.565,343.268z"/>
		<path fill="#2196F3" d="M616.097,342.21c-5.831,0-10.558,21.244-10.558,47.455c0,26.205,4.727,47.451,10.558,47.451
			c5.828,0,10.554-21.246,10.554-47.451C626.65,363.455,621.925,342.21,616.097,342.21z"/>
		<ellipse fill="#2196F3" cx="721.54" cy="371.673" rx="4.67" ry="26.449"/>
		<path fill="#2196F3" d="M731.008,345.224c-1.478,0-2.682,10.909-2.682,24.365c0,13.455,1.204,24.362,2.682,24.362
			c1.485,0,2.686-10.907,2.686-24.362C733.693,356.133,732.493,345.224,731.008,345.224z"/>
		<polygon fill="#2196F3" points="587.783,46.533 587.783,337.628 753.037,343.268 753.037,203.892 		"/>
		<path fill="#2196F3" d="M633.685,385.295l79.539-17.142c0,0-0.284-3.488,0.123-7.217c0.292-2.695,0.77-6.359,0.77-6.359
			l-83.041,2.807C632.726,366.098,633.685,385.295,633.685,385.295z"/>
	</g>
	<path fill="#00BCD4" d="M786.681,374.372c0,0-2.021,2.479-6.167,6.813c-4.165,4.309-10.37,10.575-18.813,17.963
		c-8.421,7.405-18.949,16.096-31.64,25.259c-3.174,2.292-6.441,4.674-9.881,7.014c-1.709,1.183-3.445,2.382-5.207,3.599
		c-1.781,1.183-3.589,2.382-5.42,3.598c-1.836,1.204-3.68,2.458-5.585,3.663c-1.912,1.186-3.853,2.387-5.814,3.603
		c-3.902,2.463-7.973,4.86-12.135,7.303c-16.638,9.772-35.148,19.597-55.296,28.785c-20.14,9.204-41.86,17.892-64.762,25.62
		c-5.696,2.025-11.525,3.8-17.378,5.647c-5.843,1.891-11.795,3.548-17.774,5.255c-2.994,0.846-5.996,1.695-9.006,2.548
		c-3.028,0.782-6.063,1.569-9.107,2.355c-3.046,0.776-6.102,1.555-9.163,2.337c-3.069,0.753-6.164,1.415-9.254,2.13
		c-12.354,2.897-24.893,5.432-37.518,7.744c-6.328,1.074-12.665,2.152-19.012,3.229c-6.383,0.86-12.771,1.722-19.159,2.583
		c-12.676,1.567-25.155,3.536-38.102,4.408c-6.416,0.539-12.822,1.079-19.206,1.617c-6.388,0.516-12.758,1.113-19.08,1.26
		c-12.651,0.474-25.199,1.115-37.603,1.301c-12.402-0.062-24.655-0.126-36.708-0.188c-12.034-0.546-23.868-1.086-35.451-1.613
		c-11.56-0.86-22.857-1.854-33.847-2.798c-5.494-0.478-10.887-1.27-16.212-1.871c-5.316-0.651-10.552-1.299-15.701-1.932
		c-2.574-0.3-5.119-0.689-7.636-1.108c-2.517-0.398-5.014-0.795-7.485-1.188c-4.94-0.786-9.789-1.557-14.539-2.313
		c-4.755-0.69-9.364-1.71-13.89-2.522c-4.519-0.864-8.931-1.711-13.233-2.536c-8.583-1.756-16.667-3.724-24.279-5.407
		c-3.813-0.816-7.458-1.85-10.995-2.715c-3.537-0.887-6.938-1.771-10.198-2.636c-6.516-1.768-12.455-3.568-17.835-5.098
		c-5.364-1.598-10.115-3.157-14.248-4.489c-4.108-1.418-7.604-2.622-10.436-3.599c-5.633-2.049-8.588-3.26-8.588-3.26
		s0.773,0.198,2.271,0.582c1.501,0.357,3.73,0.892,6.639,1.588c2.915,0.647,6.512,1.447,10.737,2.387
		c4.239,0.865,9.113,1.861,14.57,2.975c5.482,0.998,11.52,2.205,18.131,3.325c6.637,1.008,13.744,2.385,21.402,3.517
		c7.672,1.06,15.796,2.362,24.41,3.413c8.626,0.956,17.641,2.282,27.104,3.235c4.731,0.448,9.563,0.91,14.487,1.378
		c2.459,0.233,4.942,0.47,7.447,0.709c2.503,0.257,5.032,0.481,7.591,0.616c10.23,0.62,20.771,1.545,31.632,2.11
		c10.874,0.382,22.026,0.98,33.429,1.333c11.407,0.128,23.063,0.26,34.914,0.392c11.844-0.252,23.883-0.505,36.071-0.764
		c3.049-0.008,6.098-0.255,9.158-0.42c3.059-0.18,6.126-0.361,9.2-0.541c6.15-0.331,12.332-0.666,18.539-1
		c6.226-0.226,12.389-0.9,18.587-1.487c6.196-0.571,12.414-1.145,18.641-1.72c12.401-0.86,25.111-2.932,37.729-4.528
		c6.247-0.813,12.488-1.624,18.729-2.434c6.212-1.027,12.418-2.051,18.609-3.073c12.347-2.255,24.663-4.443,36.767-7.144
		c3.029-0.656,6.065-1.264,9.073-1.957c3.004-0.716,6-1.429,8.988-2.142c2.993-0.7,5.975-1.399,8.952-2.097
		c2.96-0.767,5.91-1.529,8.853-2.289c5.881-1.532,11.738-3.018,17.486-4.735c5.754-1.684,11.521-3.19,17.141-5.006
		c22.595-6.893,44.155-14.509,64.266-22.604c20.102-8.098,38.816-16.547,55.735-25.085c16.887-8.596,32.092-17.073,45.27-25.113
		c13.14-8.094,24.381-15.552,33.385-22.06c8.983-6.537,15.906-11.899,20.479-15.735
		C784.339,376.546,786.681,374.372,786.681,374.372z"/>
	<text transform="matrix(1 0 0 1 27.6938 616.5581)" fill="#2196F3" font-family="'MonotypeCorsiva'" font-size="85.4129">Transporte Rodríguez V.</text>
</g>
<g display="none">
	<g display="inline">
		<path fill="#2196F3" d="M50.19,570.038c-0.495,0.515-0.744,0.771-1.239,1.283c-2.08-0.604-3.745-1.196-4.997-1.765
			c-1.195-0.543-3.145-1.54-5.822-2.965c-2.014-1.071-3.856-1.994-5.496-2.772c-2.829-1.343-5.805-2.587-8.937-3.744
			c0.504-0.453,0.755-0.679,1.259-1.133c2.922,1.215,5.162,1.839,6.712,1.896c1.112,0.04,2.22-0.274,3.318-0.94
			c1.098-0.666,4.13-3.356,9.018-8.212c4.606-4.685,6.89-7.062,11.416-11.884c0.229-0.221,0.342-0.331,0.571-0.553
			c-1.586-0.724-2.785-1.261-3.602-1.605c-5.037-2.128-9.172-3.52-12.436-4.136c-3.265-0.617-5.947-0.631-8.05-0.013
			c-2.104,0.618-3.524,1.664-4.252,3.166c-0.256,0.529-0.347,1.095-0.255,1.675c0.065,0.408,0.43,1.202,1.091,2.348
			c0.621,1.073,0.818,1.884,0.564,2.417c-0.221,0.465-0.683,0.724-1.389,0.787c-0.708,0.063-1.447-0.086-2.218-0.457
			c-1.157-0.557-1.932-1.352-2.311-2.376c-0.557-1.503-0.447-3.03,0.311-4.568c1.017-2.063,3.034-3.566,6.03-4.567
			c2.996-1.001,6.527-1.237,10.602-0.743c4.076,0.495,8.657,1.817,13.784,3.961c2.441,1.021,6.239,2.88,11.418,5.483
			c3.68,1.85,6.401,3.084,8.127,3.746s3.021,0.929,3.883,0.806c0.861-0.123,1.415-0.512,1.662-1.166
			c0.049-0.13,0.111-0.411,0.172-0.83c0.056-0.381,0.102-0.636,0.144-0.747c0.191-0.504,0.594-0.833,1.211-0.988
			c0.618-0.156,1.266-0.109,1.948,0.139c0.817,0.298,1.417,0.749,1.797,1.355c0.379,0.606,0.441,1.26,0.185,1.956
			c-0.526,1.433-2.089,2.267-4.698,2.468c-2.609,0.201-6.534-0.692-11.738-2.746c-1.863-0.735-4.991-2.701-5.884-2.544
			c-0.323,0.057-2.315,2.409-5.349,5.551c-3.008,3.144-4.52,4.7-7.564,7.782c-1.855,1.88-2.788,2.815-4.657,4.673
			c-2.041,2.164-3.065,3.239-5.122,5.376c1.835,1.019,3.381,1.807,4.631,2.373C45.931,568.685,47.985,569.428,50.19,570.038z"/>
		<path fill="#2196F3" d="M66.386,578.813c-2.569-1.064-3.852-1.603-6.414-2.693c2.368-2.471,3.547-3.715,5.892-6.223
			c2.861-3.083,5.478-6.095,7.763-9.003c0.563-0.717,0.881-1.188,0.958-1.394c0.169-0.449-0.055-0.796-0.668-1.035
			c-0.419-0.163-1.134-0.221-2.146-0.181c-1.012,0.04-2.936,0.368-5.788,0.942c-0.369-0.6-0.553-0.898-0.92-1.497
			c3.428-0.805,6.646-1.186,9.668-1.117s5.239,0.351,6.66,0.884c0.501,0.188,0.867,0.416,1.102,0.687s0.309,0.526,0.22,0.773
			c-0.089,0.247-0.511,0.84-1.265,1.767c-1.47,1.769-2.207,2.646-3.688,4.398c3.953-1.911,8.084-3.315,12.392-4.203
			c2.066-0.426,3.674-0.445,4.822-0.042c0.839,0.295,1.475,0.729,1.91,1.303s0.569,1.112,0.402,1.617
			c-0.174,0.524-0.594,0.877-1.264,1.054c-0.671,0.176-2.19,0.126-4.548-0.157c-2.239-0.269-4.134-0.31-5.675-0.125
			c-1.542,0.185-3.338,0.665-5.394,1.434c-2.056,0.769-3.585,1.528-4.58,2.292s-2.804,2.729-5.456,5.864
			C68.781,576.028,67.984,576.96,66.386,578.813z"/>
		<path fill="#2196F3" d="M122.146,570.889c1.166,0.173,1.749,0.259,2.915,0.426c-2.131,2.696-3.203,4.036-5.361,6.696
			c-2.153,2.645-4.382,5.766-6.695,9.326c-1.258,1.937-1.99,3.211-2.173,3.833s0.09,1.055,0.818,1.301
			c0.466,0.157,1.271,0.193,2.412,0.111c2.018-0.146,4.014-0.507,5.981-1.091c0.425,0.654,0.639,0.983,1.066,1.639
			c-3.902,1.051-6.403,1.604-7.464,1.733c-2.125,0.261-4.101,0.3-5.917,0.138c-1.192-0.106-2.319-0.341-3.371-0.711
			c-0.76-0.267-1.292-0.587-1.598-0.959c-0.307-0.372-0.389-0.788-0.249-1.245c0.091-0.297,0.332-0.664,0.723-1.098
			c1.194-1.373,1.79-2.06,2.977-3.443c-3.111,1.191-6.64,1.88-10.552,2.079c-2.404,0.122-4.508-0.147-6.279-0.813
			c-1.685-0.634-2.842-1.529-3.473-2.659c-0.85-1.523-0.987-3.142-0.4-4.856c0.698-2.041,2.288-4.003,4.748-5.924
			c2.459-1.921,5.374-3.433,8.736-4.565c3.362-1.132,6.675-1.72,9.936-1.727c2.512-0.005,5.56,0.571,9.147,1.698
			c0.903,0.283,1.811,0.609,2.721,0.979C121.335,571.411,121.605,571.237,122.146,570.889z M115.545,573.858
			c-1.467-0.711-2.723-1.24-3.771-1.582c-2.549-0.832-4.919-1.078-7.123-0.745c-2.205,0.332-4.527,1.469-6.98,3.4
			c-2.453,1.932-4.1,4.125-4.921,6.616c-0.436,1.323-0.419,2.398,0.054,3.228c0.472,0.829,1.245,1.44,2.316,1.831
			c1.997,0.728,4.376,0.771,7.118,0.101s5.065-2.23,6.968-4.663C111.76,578.793,113.028,577.157,115.545,573.858z"/>
		<path fill="#2196F3" d="M128.891,581.271c-0.468-0.605-0.702-0.907-1.168-1.512c4.337-1.4,7.671-2.25,10.047-2.471
			c2.375-0.22,4.325-0.133,5.861,0.286c0.597,0.163,1.043,0.385,1.339,0.666c0.296,0.28,0.414,0.546,0.354,0.797
			c-0.045,0.188-0.199,0.503-0.458,0.945c-1.382,2.315-2.076,3.469-3.472,5.768c3.507-1.535,7.711-2.776,12.556-3.697
			c2.569-0.488,4.624-0.546,6.134-0.173c1.111,0.274,1.922,0.756,2.437,1.443c0.515,0.688,0.666,1.535,0.454,2.543
			c-0.14,0.665-0.422,1.395-0.859,2.154c-0.733,1.274-2.593,4.024-5.577,8.15c-2.795,3.864-4.384,6.482-4.7,7.905
			c-0.097,0.436-0.082,0.785,0.047,1.052c0.128,0.267,0.355,0.445,0.68,0.534c0.856,0.234,2.336,0.009,4.416-0.705
			c1.478-0.508,2.941-0.967,4.387-1.364c0.345,0.578,0.517,0.866,0.863,1.445c-3.16,1.488-6.364,2.477-9.574,2.991
			c-2.046,0.328-3.688,0.322-4.902-0.021c-1.126-0.318-1.934-0.861-2.421-1.619s-0.578-1.785-0.273-3.092
			c0.437-1.875,3.48-6.104,8.07-12.71c1.603-2.307,2.416-3.851,2.515-4.297c0.146-0.658-0.313-1.123-1.373-1.397
			c-1.147-0.297-2.727-0.229-4.737,0.169c-2.994,0.594-5.638,1.492-7.871,2.738c-1.427,0.796-2.84,2.318-4.236,4.546
			c-2.498,3.947-3.758,5.91-6.297,9.807c-2.632-0.812-3.946-1.222-6.573-2.059c2.056-2.686,3.9-5.31,5.54-7.859
			c2.78-4.228,4.158-6.355,6.889-10.645c0.264-0.436,0.423-0.759,0.475-0.965c0.143-0.561-0.071-0.921-0.642-1.084
			c-0.457-0.131-1.178-0.085-2.138,0.09C132.719,579.99,130.763,580.517,128.891,581.271z"/>
		<path fill="#2196F3" d="M188.645,588.372c2.555,0.52,4.465,1.29,5.74,2.332c1.273,1.042,1.837,2.064,1.681,3.07
			c-0.094,0.604-0.472,1.072-1.135,1.401c-0.664,0.33-1.417,0.41-2.258,0.241c-0.551-0.11-1.014-0.303-1.389-0.574
			c-0.375-0.271-0.883-0.864-1.504-1.771c-1.18-1.722-2.45-2.734-3.832-3.022c-1.181-0.246-2.284-0.122-3.314,0.376
			c-1.03,0.497-1.638,1.258-1.823,2.288c-0.162,0.899-0.03,1.833,0.401,2.806c0.43,0.973,1.654,2.666,3.695,5.077
			c2.798,3.306,4.033,6.142,3.649,8.494c-0.384,2.354-2.051,4.128-5.029,5.274c-2.978,1.146-6.601,1.204-10.835,0.165
			c-3.549-0.871-6.084-2.075-7.598-3.565c-1.515-1.489-2.107-2.997-1.796-4.529c0.153-0.755,0.603-1.297,1.351-1.63
			c0.748-0.332,1.593-0.383,2.535-0.148c0.823,0.205,1.491,0.579,2.003,1.126c0.511,0.547,0.715,1.097,0.611,1.639
			c-0.042,0.218-0.127,0.498-0.224,0.831c-0.079,0.271-0.128,0.516-0.166,0.711c-0.138,0.717,0.169,1.429,0.891,2.134
			c0.703,0.688,1.751,1.219,3.144,1.558c1.601,0.389,3.046,0.523,4.334,0.405c1.288-0.119,2.345-0.514,3.169-1.183
			s1.304-1.414,1.445-2.229c0.137-0.793-0.044-1.657-0.54-2.593c-0.497-0.936-1.7-2.567-3.561-4.887
			c-2.59-3.228-3.636-6.021-3.197-8.351c0.402-2.134,1.896-3.738,4.462-4.85S185.141,587.66,188.645,588.372z"/>
		<path fill="#2196F3" d="M197.333,598.654c-0.599-0.671-0.898-1.004-1.495-1.674c3.02-1.916,5.9-3.238,8.664-3.943
			c2.763-0.704,5.086-0.909,6.988-0.588c0.72,0.122,1.272,0.359,1.654,0.714c0.381,0.354,0.538,0.805,0.468,1.352
			c-0.084,0.661-0.266,1.324-0.543,1.987c-0.278,0.664-2.406,4.632-2.406,4.632c0.158,0.158,8.199-4.392,9.912-4.967
			c2.879-0.967,5.44-1.313,7.693-0.988c1.473,0.213,2.657,0.944,3.56,2.203c0.902,1.259,1.248,3.019,1.029,5.278
			c-0.547,5.639-3.272,10.694-8.312,14.994c-5.04,4.301-10.382,5.882-15.877,4.822c-2.162-0.417-4.265-1.29-6.297-2.605
			c-2.162,4.168-3.254,6.24-5.462,10.361c-0.342,0.622-0.545,1.148-0.607,1.576c-0.122,0.832,0.224,1.522,1.023,2.069
			c1.23,0.842,3.932,1.911,8.115,3.15c-0.329,0.633-0.492,0.949-0.822,1.581c-4.908-1.329-8.763-2.329-11.581-2.963
			c-2.91-0.655-6.695-1.375-11.358-2.202c0.35-0.607,0.523-0.909,0.872-1.518c2.347,0.377,4.11,0.303,5.282-0.212
			c1.171-0.516,2.228-1.675,3.166-3.478c4.871-9.445,7.251-14.222,11.897-23.893c2.176-4.499,3.279-7.045,3.354-7.588
			c0.082-0.588-0.241-0.945-0.964-1.076C204.011,595.45,201.381,596.47,197.333,598.654z M203.972,616.355
			c2.105,2.251,4.413,3.62,6.896,4.088c3.59,0.676,7.011-0.894,10.184-4.749c3.173-3.854,4.946-7.88,5.385-12
			c0.141-1.319-0.125-2.377-0.792-3.172c-0.667-0.794-1.621-1.287-2.867-1.48c-1.392-0.217-3.019,0.074-4.889,0.867
			c-2.901,1.229-5.19,2.528-6.826,3.915c-1.176,0.997-2.413,2.873-3.716,5.607C206.006,612.21,205.332,613.595,203.972,616.355z"/>
		<path fill="#2196F3" d="M258.459,598.94c2.838,0.285,5.146,1.439,6.947,3.491c1.8,2.052,2.638,4.756,2.49,8.109
			c-0.237,5.355-2.752,9.954-7.665,13.643c-4.912,3.688-10.061,5.128-15.32,4.384c-3.235-0.458-5.773-1.671-7.601-3.609
			c-1.828-1.938-2.602-4.322-2.342-7.152c0.451-4.91,2.653-9.202,6.513-12.902C246.301,600.283,251.942,598.286,258.459,598.94z
			 M254.594,601.239c-2.471-0.267-4.956,0.909-7.496,3.498c-2.541,2.59-4.034,6.383-4.44,11.425
			c-0.247,3.063,0.288,5.58,1.622,7.554c0.979,1.449,2.378,2.302,4.186,2.545c2.531,0.341,4.941-0.595,7.143-2.825
			c2.836-2.874,4.361-6.774,4.626-11.565c0.199-3.594-0.254-6.218-1.347-7.871S256.367,601.43,254.594,601.239z"/>
		<path fill="#2196F3" d="M279.738,631.589c-2.708-0.25-4.06-0.382-6.767-0.657c1.412-3.785,2.108-5.686,3.485-9.499
			c1.673-4.679,3.141-9.172,4.337-13.419c0.295-1.048,0.44-1.718,0.447-1.986c0.015-0.586-0.3-0.903-0.941-0.949
			c-0.438-0.031-1.113,0.17-2.033,0.601c-0.92,0.431-2.59,1.545-5.04,3.305c-0.527-0.556-0.792-0.834-1.317-1.39
			c2.907-2.249,5.754-3.914,8.562-4.976s4.939-1.565,6.417-1.478c0.521,0.031,0.933,0.159,1.234,0.386
			c0.301,0.228,0.449,0.499,0.445,0.819c-0.004,0.321-0.208,1.162-0.612,2.521c-0.801,2.605-1.204,3.906-2.02,6.5
			c3.048-3.709,6.418-6.886,10.118-9.511c1.773-1.258,3.252-1.871,4.441-1.825c0.869,0.033,1.596,0.301,2.179,0.807
			s0.878,1.085,0.883,1.732c0.005,0.672-0.274,1.234-0.837,1.686c-0.565,0.451-1.984,0.95-4.252,1.493
			c-2.153,0.516-3.919,1.17-5.285,1.959c-1.366,0.789-2.872,2.02-4.528,3.685c-1.657,1.664-2.83,3.123-3.507,4.386
			s-1.732,4.234-3.195,8.886C281.074,627.441,280.632,628.826,279.738,631.589z"/>
		<path fill="#2196F3" d="M311.272,596.458c2.722-0.86,4.079-1.3,6.782-2.197c-1.113,4.222-1.679,6.325-2.831,10.52
			c3.616,0.077,5.423,0.104,9.039,0.134c-0.239,1.076-0.36,1.616-0.602,2.69c-3.632-0.042-5.448-0.075-9.081-0.163
			c-1.411,5.014-2.13,7.511-3.597,12.485c-1.168,3.73-1.758,6.321-1.735,7.796c0.01,0.675,0.191,1.169,0.543,1.486
			s0.829,0.491,1.433,0.52c0.935,0.043,2.366-0.352,4.266-1.207c2.498-1.125,4.862-2.453,7.083-3.96
			c0.706,0.715,1.061,1.072,1.77,1.788c-6.42,4.008-10.824,6.32-13.052,7.137c-2.228,0.816-4.03,1.177-5.396,1.099
			c-1.124-0.064-2.017-0.455-2.673-1.166s-0.988-1.826-0.997-3.344c-0.01-1.79,0.551-4.486,1.657-8.114
			c1.776-5.854,2.646-8.794,4.346-14.702c-2.84-0.095-4.26-0.147-7.1-0.271c0.312-1.045,0.465-1.57,0.774-2.617
			c2.832,0.113,4.249,0.165,7.081,0.25C309.909,601.364,310.368,599.731,311.272,596.458z"/>
		<path fill="#2196F3" d="M352.176,624.977c0.644,0.673,0.965,1.008,1.612,1.682c-6.887,6.131-13.133,9.04-18.452,8.948
			c-2.159-0.037-3.836-0.685-5.027-1.931s-1.838-3.214-1.95-5.904c-0.227-5.431,1.527-10.791,5.049-16.186
			c3.988-6.107,8.827-9.307,14.705-9.469c2.055-0.057,3.66,0.354,4.819,1.234c1.159,0.882,1.807,2.121,1.937,3.727
			c0.136,1.684-0.386,3.363-1.581,5.026c-1.195,1.664-3.448,3.445-6.753,5.205c-1.644,0.876-9.011,2.388-10.775,4.613
			c-0.428,0.539-0.264,2.687-0.199,3.937c0.094,1.812,0.497,3.076,1.213,3.798s1.726,1.094,3.024,1.104
			c1.237,0.009,2.578-0.278,4.018-0.866C345.753,629.103,348.559,627.484,352.176,624.977z M336.164,619.473
			c0.541,0.429,8.168-3.852,10.374-6.025c1.517-1.495,2.214-3.019,2.109-4.488c-0.079-1.107-0.471-1.983-1.172-2.625
			c-0.701-0.643-1.575-0.949-2.623-0.928c-1.077,0.021-2.101,0.406-3.075,1.132c-1.302,0.971-2.391,2.42-3.208,4.342
			C337.373,613.688,336.15,619.462,336.164,619.473z"/>
		<path fill="#2196F3" d="M403.443,609.428c-1.103,8.73-1.69,13.078-2.942,21.73c1.471,0.08,2.646,0.086,3.519,0.018
			c1.324-0.104,2.938-0.437,4.832-1.004c-0.063,0.801-0.095,1.201-0.158,2.002c-1.967,0.542-3.512,0.853-4.63,0.938
			c-1.181,0.09-2.947,0.141-5.257,0.103c-2.04-0.034-3.744-0.03-5.074,0.054c-2.42,0.152-5.179,0.619-8.288,1.387
			c0.168-0.899,0.251-1.348,0.417-2.248c3.235-0.915,5.318-1.781,6.199-2.561c1.357-1.201,2.252-3.313,2.677-6.235
			c1.32-9.078,1.94-13.64,3.097-22.804c0.346-2.921,0.476-4.637,0.403-5.143c-0.069-0.479-0.301-0.821-0.691-1.024
			c-0.391-0.203-1.114-0.238-2.167-0.107c0.116-0.788,0.174-1.181,0.289-1.97c2.866-0.318,10.078-2.608,10.078-2.608
			c0.109,0.091-0.396,2.607-0.637,4.647c-0.563,4.878-0.855,7.31-1.466,12.164c1.439,0.128,2.639,0.143,3.602,0.042
			c3.645-0.379,6.58-1.9,8.766-4.563s2.979-5.629,2.422-8.862c-0.432-2.507-1.804-4.432-4.096-5.779s-5.162-1.792-8.631-1.371
			c-4.43,0.538-8.609,2.039-12.593,4.483c-3.984,2.445-6.882,5.218-8.673,8.362c-1.792,3.145-2.517,6.321-2.132,9.563
			c0.291,2.452,1.674,4.512,4.157,6.099c1.245,0.795,2.046,1.376,2.362,1.754c0.316,0.377,0.502,0.791,0.56,1.24
			c0.071,0.557-0.098,1.056-0.508,1.497c-0.411,0.442-0.945,0.685-1.602,0.728c-1.612,0.105-3.156-0.637-4.593-2.22
			c-1.861-2.051-2.96-4.672-3.322-7.829c-0.463-4.051,0.348-7.902,2.374-11.598c2.025-3.695,5.338-6.912,9.916-9.711
			s9.516-4.541,14.888-5.215c5.005-0.628,9.265-0.298,12.821,1.051c3.556,1.349,5.674,3.785,6.321,7.328
			c0.607,3.328-0.327,6.644-2.869,9.898c-2.543,3.256-11.625,6.673-11.734,6.986c-0.163,0.467,2.88,3.895,3.391,4.71
			c0.855,1.365,2.19,3.728,4.039,7.029c4.332,7.739,8.493,13.126,12.367,16.062c2.852,2.161,5.739,3.087,8.58,2.756
			c2.933-0.342,4.608-1.771,4.938-4.205c0.207-1.53,0.471-2.528,0.82-2.936c0.478-0.557,1.077-0.89,1.803-0.986
			c0.725-0.097,1.379,0.053,1.973,0.449s0.961,0.92,1.095,1.574c0.346,1.689-0.355,3.44-2.124,5.231
			c-1.769,1.79-4.305,2.88-7.584,3.259c-2.975,0.344-5.94,0.019-8.873-0.963c-2.935-0.982-5.923-2.791-8.941-5.414
			c-3.018-2.623-5.779-5.858-8.27-9.691c-1.247-1.919-3.207-5.481-5.777-10.653c-1.564-3.148-2.511-5.047-2.87-5.662
			c-0.437,0.011-0.655,0.017-1.092,0.027C404.295,609.263,403.925,609.328,403.443,609.428z"/>
		<path fill="#2196F3" d="M451.736,591.639c2.793-0.495,5.348,0.147,7.697,1.946c2.349,1.799,3.98,4.61,4.871,8.435
			c1.422,6.107,0.436,12.011-3.121,17.604c-3.558,5.593-8.029,8.736-13.271,9.45c-3.225,0.439-6.018-0.184-8.35-1.833
			c-2.333-1.649-3.798-4.117-4.416-7.397c-1.073-5.693-0.294-11.202,2.248-16.526C440.564,596.677,445.323,592.777,451.736,591.639z
			 M448.759,595.353c-2.438,0.414-4.443,2.463-6.068,6.132s-1.885,8.4-0.728,14.223c0.703,3.537,1.981,6.224,3.859,8.063
			c1.378,1.35,2.972,1.903,4.771,1.646c2.518-0.36,4.533-2.13,5.947-5.29c1.825-4.077,2.08-8.916,0.86-14.4
			c-0.915-4.114-2.153-6.946-3.703-8.497S450.506,595.056,448.759,595.353z"/>
		<path fill="#2196F3" d="M505.775,608.325c0.675,0.523,1.013,0.787,1.689,1.311c-3.026,4.061-5.4,6.787-7.047,8.225
			c-2.278,1.988-4.218,3.13-5.771,3.443c-0.716,0.145-1.347,0.073-1.894-0.212c-0.546-0.285-0.879-0.662-1.003-1.134
			s-0.167-1.282-0.126-2.432c0.085-2.161,0.124-3.243,0.199-5.408c-2.578,4.321-4.935,7.327-6.997,9.055
			c-2.063,1.728-4.064,2.759-5.982,3.104c-1.589,0.285-3.076-0.125-4.46-1.22c-1.385-1.095-2.366-2.884-2.956-5.367
			c-0.931-3.917-0.55-8.67,1.04-14.313c1.59-5.644,3.75-10.056,6.521-13.239c2.771-3.184,5.526-5.114,8.321-5.761
			c0.62-0.144,2.648-0.112,2.871-0.359c1.188-1.318-0.011-9.994,0.481-12.781c0.492-2.788,1.408-5.33,2.747-7.631
			c1.338-2.3,3.04-4.268,5.116-5.914c2.074-1.646,4.126-2.77,6.174-3.36c1.076-0.311,2.029-0.265,2.859,0.136
			s1.388,1.046,1.668,1.944c0.272,0.871,0.196,1.67-0.231,2.391s-1.16,1.23-2.197,1.524c-0.681,0.193-1.998,0.411-3.938,0.647
			s-3.248,0.442-3.931,0.628c-0.956,0.261-1.707,0.787-2.257,1.581c-0.551,0.794-0.856,2.282-0.96,4.42
			c-0.065,1.363,0.086,5.641,0.411,12.787c0.491,10.702,0.688,16.038,0.984,26.675c0.092,3.141,0.265,5.197,0.531,6.171
			c0.29,1.06,0.862,1.497,1.72,1.313c0.532-0.114,1.11-0.429,1.711-0.946C501.928,612.864,503.51,611.104,505.775,608.325z
			 M490.55,588.821c-2.411,0.022-4.085,0.13-5.023,0.34c-1.905,0.427-3.575,1.567-5.027,3.417c-1.453,1.849-2.504,5.038-3.181,9.564
			c-0.678,4.527-0.656,8.33,0.108,11.43c0.349,1.412,1.038,2.491,2.076,3.237c1.038,0.747,2.081,1.021,3.12,0.822
			c1.246-0.237,2.564-1.022,3.87-2.366c1.885-1.939,3.23-4.231,3.926-6.685c0.435-1.531,0.582-5.188,0.438-10.913
			C490.745,594.132,490.684,592.363,490.55,588.821z"/>
		<path fill="#2196F3" d="M522.309,613.715c-2.645,0.645-3.968,0.961-6.617,1.581c-0.096-4.809-0.154-7.215-0.293-12.038
			c-0.187-5.913-0.495-11.539-0.97-16.79c-0.117-1.297-0.235-2.104-0.33-2.412c-0.207-0.674-0.62-0.931-1.241-0.766
			c-0.423,0.112-0.983,0.573-1.686,1.376c-0.703,0.804-1.855,2.641-3.495,5.486c-0.704-0.455-1.056-0.684-1.758-1.139
			c1.884-3.563,3.932-6.427,6.173-8.588c2.24-2.161,4.056-3.451,5.48-3.849c0.504-0.141,0.938-0.137,1.307,0.02
			s0.613,0.421,0.729,0.787c0.116,0.367,0.246,1.394,0.378,3.078c0.228,3.237,0.332,4.854,0.541,8.086
			c1.474-5.259,3.454-10.009,5.953-14.231c1.198-2.023,2.361-3.215,3.499-3.558c0.833-0.251,1.619-0.186,2.361,0.196
			c0.741,0.381,1.24,0.937,1.489,1.671c0.259,0.762,0.209,1.496-0.153,2.196c-0.363,0.7-1.517,1.744-3.451,3.119
			c-1.838,1.307-3.255,2.642-4.245,3.999c-0.991,1.357-1.948,3.265-2.881,5.72s-1.488,4.514-1.65,6.184
			c-0.163,1.67-0.035,5.412,0.338,11.216C522.006,608.525,522.11,610.256,522.309,613.715z"/>
		<path fill="#2196F3" d="M534.111,582.652c-0.938-0.357-1.41-0.534-2.346-0.894c1.787-3.92,3.585-6.898,5.427-8.918
			c1.843-2.021,3.554-3.295,5.157-3.807c0.884-0.282,1.631-0.303,2.242-0.058s1.039,0.708,1.281,1.387
			c0.294,0.822,0.643,4.603,0.971,11.311c0.537,10.971,1.058,17.462,1.771,19.524c0.138,0.396,0.354,0.698,0.648,0.907
			c0.296,0.21,0.565,0.282,0.799,0.215c0.292-0.085,0.697-0.416,1.19-1c1.266-1.499,2.289-3.116,3.109-4.676
			c0.372-0.706,0.708-1.28,0.971-1.706c0.924,0.435,1.385,0.652,2.312,1.086c-2.393,4.225-3.917,6.69-4.484,7.448
			c-1.248,1.667-2.516,2.984-3.76,3.932c-0.638,0.485-1.31,0.833-2.016,1.03c-1.06,0.297-1.997,0.225-2.805-0.216
			s-1.396-1.226-1.776-2.354c-0.684-2.031-1.137-5.368-1.444-9.977c-0.543-8.143-0.898-14.115-0.934-17.783
			c-0.007-0.745-0.097-1.362-0.264-1.843c-0.195-0.564-0.548-0.771-1.051-0.616c-0.56,0.172-1.118,0.595-1.678,1.263
			S535.784,579.499,534.111,582.652z M541.355,550.086c3.06-1.045,4.586-1.577,7.635-2.658c-3.596,6.868-5.46,10.267-9.316,16.983
			c-0.972,0.313-1.46,0.469-2.433,0.777C538.962,559.181,539.786,556.16,541.355,550.086z"/>
		<path fill="#2196F3" d="M577.431,556.708c1.188-0.807,1.78-1.212,2.962-2.025c0.782,7.436,1.674,14.814,2.661,22.12
			c0.706,5.224,1.45,9.532,2.224,12.88c0.388,1.677,1.05,3.761,1.996,6.217c1.584,4.113,2.436,7.586,2.547,10.384
			c0.156,3.913-1.055,7.496-3.654,10.714c-2.601,3.219-6.292,5.544-11.033,6.947c-4.076,1.207-7.622,1.222-10.601,0.087
			s-4.865-2.87-5.681-5.188c-0.806-2.292-0.607-4.693,0.508-7.202c0.838-1.883,3.067-4.541,6.531-7.985
			c1.765-1.755,4.828-5.316,4.828-5.316c-0.002-0.002-3.239,2.835-4.441,3.208c-1.086,0.337-2.228,0.141-3.419-0.581
			s-2.078-1.89-2.665-3.506c-1.895-5.214-2.188-10.879-1.003-17.037c1.185-6.158,3.386-11.272,6.631-15.357
			c2-2.519,4.951-4.495,8.861-5.95c0.766-0.285,1.721-0.604,2.863-0.969C577.5,557.573,577.477,557.284,577.431,556.708z
			 M578.895,590.032c-0.202-0.021-3.961,6.491-8.219,12.04c-3.732,4.864-6.045,8.16-6.668,9.941
			c-0.632,1.805-0.65,3.543-0.061,5.186c0.579,1.614,1.855,2.848,3.843,3.695c1.985,0.847,4.072,0.952,6.24,0.307
			c2.049-0.61,3.861-1.686,5.421-3.228s2.696-3.442,3.414-5.697c0.717-2.255,0.892-4.61,0.534-7.059s-1.329-5.589-2.698-9.321
			C580.4,595.078,578.895,590.032,578.895,590.032z M575.396,564.745c-1.426,0.227-2.647,0.521-3.668,0.888
			c-2.62,0.943-4.594,2.452-5.934,4.527c-1.341,2.076-2.06,5.021-2.138,8.813c-0.11,5.359,0.423,9.665,1.629,12.901
			c0.497,1.334,1.297,2.336,2.401,2.999c1.104,0.664,2.139,0.843,3.091,0.535c1.155-0.373,2.379-1.385,3.655-3.04
			c1.275-1.656,2.126-3.494,2.55-5.508s0.396-5.232-0.108-9.661C576.308,572.223,576.011,569.732,575.396,564.745z"/>
		<path fill="#2196F3" d="M611.353,544.542c2.291-1.003,3.434-1.512,5.718-2.535c1.326,6.68,1.969,10.02,3.214,16.687
			c1.778,9.693,2.869,15.128,3.423,16.332c0.25,0.544,0.564,0.908,0.95,1.089c0.388,0.182,0.738,0.207,1.05,0.078
			c0.479-0.198,0.967-0.65,1.397-1.346c0.632-1.019,1.616-3.438,2.925-7.202c0.854,0.398,1.282,0.599,2.139,0.996
			c-2.776,8.401-5.659,13.101-8.373,14.189c-0.914,0.367-1.854,0.325-2.813-0.119s-1.726-1.313-2.305-2.6
			c-0.67-1.487-1.771-6.332-1.771-6.332c-0.117-0.006-3.161,7.731-5.944,11.362c-1.848,2.41-3.71,3.953-5.551,4.636
			c-1.008,0.374-1.94,0.334-2.792-0.111c-0.854-0.445-1.58-1.383-2.184-2.812c-0.471-1.114-0.854-2.365-1.137-3.743
			c-0.396-1.932-0.977-5.906-1.818-11.906c-1.067-7.607-1.951-12.112-2.544-13.486c-0.346-0.801-0.792-1.093-1.339-0.875
			c-0.491,0.195-1.043,0.728-1.665,1.59c-0.623,0.863-1.53,2.711-2.749,5.531c-0.98-0.319-1.47-0.478-2.447-0.799
			c2.264-4.833,4.078-8.191,5.529-10.032c1.451-1.84,2.749-3.005,3.91-3.482c0.646-0.267,1.283-0.23,1.908,0.103
			s1.174,1.029,1.642,2.088c0.873,1.976,2.044,7.249,3.428,15.754c1.245,7.648,2.051,11.966,2.472,12.938
			c0.26,0.601,0.673,1.041,1.242,1.323c0.568,0.281,1.083,0.338,1.538,0.163c1.592-0.611,3.281-2.81,5.002-6.609
			s2.235-7.588,1.585-11.332C613.591,556.272,612.864,552.367,611.353,544.542z"/>
		<path fill="#2196F3" d="M655.379,554.061c0.935,0.497,1.4,0.745,2.338,1.241c-3.272,9.902-7.565,15.898-12.506,18.067
			c-2.005,0.88-3.875,0.857-5.597-0.061s-3.307-2.898-4.764-5.935c-2.941-6.129-4.03-13.028-3.512-20.695
			c0.588-8.688,3.425-14.364,8.761-17.005c1.866-0.924,3.552-1.129,5.066-0.607c1.516,0.522,2.741,1.671,3.671,3.447
			c0.975,1.863,1.34,3.992,1.075,6.391c-0.264,2.399-1.445,5.376-3.607,8.783c-1.072,1.689-6.974,6.699-7.598,9.83
			c-0.178,0.892,1.11,3.19,1.8,4.594c0.999,2.034,2.009,3.313,3.032,3.834c1.022,0.521,2.137,0.514,3.337-0.027
			c1.144-0.516,2.237-1.413,3.269-2.697C651.533,561.492,653.301,558.448,655.379,554.061z M637.845,554.543
			c0.631,0.126,5.58-7.861,6.517-11.268c0.646-2.351,0.517-4.381-0.321-6.015c-0.632-1.231-1.432-2.067-2.401-2.506
			c-0.972-0.439-1.932-0.427-2.886,0.037c-0.981,0.477-1.729,1.346-2.261,2.586c-0.709,1.655-0.979,3.774-0.764,6.318
			C636.045,547.417,637.845,554.543,637.845,554.543z"/>
		<path fill="#2196F3" d="M676.151,516.535c-1.945,2.035-3.914,3.586-5.895,4.666c-1.095,0.597-2.354,1.197-3.761,1.755
			c-1.961,0.777-3.287,1.313-3.915,1.646c-0.785,0.416-1.277,0.936-1.479,1.557s-0.13,1.245,0.213,1.876
			c0.529,0.974,1.301,1.237,2.287,0.847c1.239-0.491,2.182-0.209,2.749,0.822c0.268,0.487,0.32,1.021,0.162,1.603
			s-0.477,0.997-0.954,1.246c-0.956,0.498-2.116,0.448-3.476-0.15s-2.447-1.657-3.267-3.176c-1.051-1.948-1.201-4.012-0.479-6.2
			c0.724-2.187,2.162-3.863,4.337-5.039c1.139-0.616,2.779-1.278,4.904-2.002c3.426-1.167,5.824-2.163,7.188-2.932
			c1.389-0.783,2.373-2.064,2.989-3.754c0.282-0.773,0.624-1.274,0.981-1.48c0.307-0.177,0.627-0.22,0.971-0.131
			c0.343,0.089,0.575,0.232,0.692,0.433c0.169,0.287,0.194,0.696,0.131,1.188c-0.211,1.646-0.823,5.105-2.066,10.178
			c-1.912,7.794-2.934,11.668-5.111,19.37c-1.598,5.624-4.295,13.696-4.295,13.696c0.072,0.057,2.632-1.665,3.508-2.106
			c1.231-0.62,2.413-1.079,3.541-1.38s3.041-0.659,5.693-1.022c3.48-0.477,6.188-1.173,8.015-2.142
			c1.145-0.607,1.861-1.357,2.152-2.242s0.188-1.758-0.307-2.615c-0.28-0.486-0.923-1.049-1.835-1.708
			c-0.867-0.626-1.437-1.21-1.699-1.668c-0.395-0.687-0.514-1.391-0.365-2.11c0.148-0.718,0.541-1.253,1.183-1.604
			c0.775-0.425,1.62-0.445,2.533-0.058c0.914,0.387,1.679,1.11,2.297,2.171c0.938,1.607,1.369,3.595,1.281,5.962
			c-0.088,2.368-0.708,4.479-1.863,6.326c-1.155,1.848-2.993,3.427-5.5,4.724c-2.066,1.069-5.455,1.991-10.09,2.762
			c-3.854,0.641-6.565,1.347-8.115,2.104c-0.94,0.46-1.821,1.526-2.476,3.125c-0.395,0.965-0.834,1.624-1.363,1.877
			c-1.031,0.492-1.683,0.476-1.955-0.046c-0.258-0.493-0.273-1.229-0.06-2.202c0.575-2.617,2.484-8.419,5.423-17.481
			c1.985-6.124,3.548-11.675,4.75-16.614C674.781,522.586,675.249,520.575,676.151,516.535z"/>
		<path fill="#2196F3" d="M743.411,521.998c-6.048-7.871-9.063-11.809-15.068-19.687c-3.062-4.015-5.028-6.69-5.909-8.024
			c-2.536-3.841-4.387-7.694-5.578-11.558c-1.191-3.864-1.953-13.781-1.953-13.781c-0.365-0.186-5.143,4.701-7.049,8.269
			s-2.904,6.831-2.965,9.813s0.565,5.526,1.91,7.637c0.618,0.971,1.532,1.838,2.742,2.586c1.535,0.949,2.543,1.778,2.999,2.49
			c0.421,0.656,0.583,1.297,0.484,1.918c-0.098,0.622-0.427,1.106-0.982,1.454c-0.811,0.508-1.843,0.487-3.02-0.083
			c-1.54-0.747-2.908-2.096-4.075-3.947c-2.191-3.476-3.139-7.545-2.918-12.225c0.222-4.679,1.771-9.065,4.619-13.202
			c1.835-2.664,5.027-5.8,9.419-9.472c1.183-0.989,3.553-3.151,3.553-3.151c0.744,0.288,1.679,14.05,3.207,18.494
			c1.529,4.443,4.439,9.885,8.765,16.321c3.318,4.938,6.575,9.297,9.794,13.077c0.643-5.438,0.937-8.163,1.463-13.627
			c0.532-4.546,0.777-6.824,1.228-11.388c1.116-11.525,0.996-20.168,0.022-25.84c-0.734-4.283-2.063-7.702-3.942-10.259
			c-1.033-1.405-2.441-2.761-4.205-4.025c-1.12-0.804-1.896-1.482-2.309-2.045c-0.556-0.76-0.803-1.603-0.747-2.528
			s0.398-1.638,1.035-2.137c0.864-0.678,1.993-0.703,3.397-0.076c1.405,0.629,2.978,2.104,4.713,4.434
			c1.693,2.271,3.097,4.985,4.188,8.141s1.811,7.687,2.069,13.576s-0.034,14.123-1.169,24.628
			C745.896,499.186,744.662,510.593,743.411,521.998z"/>
		<path fill="#2196F3" d="M771.698,486.712c0.981-0.715,2.114-0.903,3.396-0.564c1.283,0.339,2.399,1.14,3.343,2.401
			c1.362,1.823,2.036,3.541,2.018,5.152c-0.02,1.612-0.635,2.854-1.842,3.718c-1.003,0.718-2.131,0.931-3.378,0.642
			s-2.311-1.039-3.193-2.249c-1.294-1.771-1.939-3.663-1.98-5.648C770.031,488.696,770.565,487.538,771.698,486.712z"/>
	</g>
</g>
</svg>
