<?xml version="1.0" encoding="utf-8"?>
<!-- Generator: Adobe Illustrator 16.0.0, SVG Export Plug-In . SVG Version: 6.00 Build 0)  -->
<!DOCTYPE svg PUBLIC "-//W3C//DTD SVG 1.1//EN" "http://www.w3.org/Graphics/SVG/1.1/DTD/svg11.dtd">
<svg version="1.1" id="Capa_1" xmlns="http://www.w3.org/2000/svg" xmlns:xlink="http://www.w3.org/1999/xlink" x="0px" y="0px"
	 width="183.485px" height="183.48px" viewBox="-0.01 0 183.485 183.48" enable-background="new -0.01 0 183.485 183.48"
	 xml:space="preserve">
<path opacity="0.1" fill="#2196F3" d="M-0.005,43.332l2.355-2.176c1.189,0.739,2.439,1.376,3.736,1.906l-0.612,5.219l1.356,0.443
	l2.574-4.587c1.335,0.332,2.721,0.55,4.138,0.652l1.03,5.158h1.427l1.03-5.158c1.396-0.102,2.783-0.316,4.139-0.652l2.574,4.582
	l1.355-0.438l-0.611-5.219c1.3-0.524,2.548-1.167,3.736-1.906l3.863,3.568l1.152-0.841l-2.192-4.781
	c1.067-0.899,2.057-1.889,2.957-2.956l4.781,2.192l0.841-1.152l-3.568-3.863c0.739-1.19,1.376-2.439,1.906-3.736l5.219,0.612
	l0.444-1.356l-4.587-2.573c0.335-1.358,0.554-2.743,0.652-4.139l5.158-1.03v-1.427l-5.158-1.03
	c-0.102-1.396-0.316-2.783-0.652-4.139l4.582-2.573l-0.438-1.356l-5.219,0.612c-0.525-1.3-1.167-2.548-1.906-3.736l3.568-3.863
	l-0.841-1.152L34,4.628c-0.9-1.067-1.889-2.057-2.957-2.956L31.809,0h1.101l-0.637,1.386c0.708,0.633,1.38,1.305,2.013,2.013
	l4.842-2.222l1.794,2.472l-3.608,3.914c0.479,0.815,0.912,1.667,1.294,2.538l5.291-0.617l0.943,2.905L40.198,15
	c0.199,0.917,0.347,1.86,0.443,2.813l5.224,1.045v3.058l-5.224,1.044c-0.095,0.945-0.243,1.885-0.443,2.813l4.643,2.609
	l-0.943,2.905l-5.291-0.617c-0.382,0.866-0.815,1.717-1.294,2.538l3.608,3.914l-1.794,2.472l-4.842-2.222
	c-0.633,0.708-1.305,1.38-2.013,2.013l2.222,4.842l-2.472,1.794l-3.914-3.608c-0.815,0.479-1.667,0.913-2.538,1.294L26.187,49
	l-2.905,0.943l-2.609-4.643c-0.917,0.199-1.86,0.347-2.813,0.443l-1.044,5.224h-3.058l-1.045-5.224
	c-0.945-0.095-1.884-0.243-2.813-0.443l-2.609,4.643L4.383,49L5,43.709c-0.866-0.382-1.717-0.815-2.538-1.294l-2.467,2.273V43.332z
	 M-0.005,26.859V13.914l4.271,2.467c-0.943,2.587-0.943,5.424,0,8.012L-0.005,26.859z M-0.005,6.901
	c3.399-3.86,8.134-6.29,13.251-6.799v8.741c-2.713,0.478-5.171,1.896-6.942,4.006l-6.31-3.644V6.901z M-0.005,33.873v-2.304
	l6.31-3.644c1.771,2.11,4.229,3.528,6.942,4.006v8.741C8.129,40.162,3.394,37.732-0.005,33.873z M17.324,40.671v-8.741
	c2.713-0.478,5.171-1.896,6.942-4.006l7.569,4.373C28.422,37.041,23.138,40.09,17.324,40.671z M33.878,28.766l-7.574-4.373
	c0.943-2.587,0.943-5.424,0-8.012l7.574-4.373c1.187,2.634,1.798,5.49,1.794,8.379C35.676,23.275,35.064,26.132,33.878,28.766z
	 M31.834,8.481l-7.569,4.363c-1.771-2.108-4.229-3.525-6.942-4.001V0.102c5.814,0.581,11.099,3.63,14.511,8.374V8.481z
	 M-0.005,25.677l3.048-1.758c-0.667-2.311-0.667-4.764,0-7.075l-3.048-1.758V25.677z M0.25,8.17l5.851,3.379
	c1.667-1.733,3.792-2.957,6.126-3.537V1.259C7.519,2.01,3.254,4.473,0.25,8.175V8.17z M0.25,32.593
	c3.003,3.705,7.268,6.169,11.977,6.921v-6.753c-2.335-0.578-4.46-1.806-6.126-3.542L0.25,32.599V32.593z M18.343,39.515
	c4.708-0.751,8.974-3.214,11.977-6.916l-5.851-3.379c-1.667,1.736-3.791,2.964-6.126,3.542V39.515z M33.378,27.303
	c1.707-4.453,1.707-9.379,0-13.832l-5.851,3.379c0.667,2.311,0.667,4.763,0,7.074l5.856,3.379H33.378z M30.32,8.175
	c-3.003-3.703-7.269-6.166-11.977-6.917v6.753c2.375,0.586,4.485,1.834,6.126,3.542L30.32,8.175z M15.285,27.522
	c-3.94,0-7.135-3.194-7.135-7.135c0-3.94,3.195-7.135,7.135-7.135c3.941,0,7.135,3.195,7.135,7.135
	C22.42,24.328,19.226,27.522,15.285,27.522z M15.285,26.503c3.378,0,6.116-2.738,6.116-6.116s-2.738-6.116-6.116-6.116
	s-6.116,2.738-6.116,6.116S11.907,26.503,15.285,26.503z M15.285,25.483c-2.815,0-5.097-2.282-5.097-5.097s2.282-5.097,5.097-5.097
	s5.097,2.282,5.097,5.097S18.1,25.483,15.285,25.483z M15.285,24.464c2.252,0,4.078-1.825,4.078-4.077s-1.826-4.077-4.078-4.077
	s-4.077,1.825-4.077,4.077S13.033,24.464,15.285,24.464z M54.77,47.486l-0.826-3.042l2.89-1.05l1.33,2.875
	c0.556-0.127,1.122-0.224,1.697-0.295l0.265-3.16h3.078l0.265,3.16c0.576,0.071,1.142,0.168,1.697,0.295l1.325-2.875l2.895,1.05
	l-0.826,3.042c0.52,0.26,1.02,0.545,1.504,0.861l2.217-2.232l2.355,1.978l-1.799,2.548c0.408,0.428,0.78,0.872,1.137,1.335
	l2.813-1.325l1.54,2.666l-2.538,1.763c0.234,0.541,0.438,1.091,0.611,1.657l3.068-0.275l0.535,3.027l-2.977,0.785
	c0.036,0.591,0.036,1.183,0,1.773l2.977,0.785l-0.535,3.027l-3.068-0.275c-0.173,0.561-0.377,1.121-0.611,1.657l2.538,1.763
	l-1.54,2.661l-2.813-1.325c-0.357,0.469-0.734,0.917-1.137,1.335l1.799,2.548l-2.355,1.983l-2.217-2.232
	c-0.485,0.315-0.987,0.603-1.504,0.861l0.826,3.043l-2.89,1.05l-1.33-2.875c-0.556,0.127-1.122,0.224-1.697,0.296l-0.265,3.16
	h-3.078l-0.265-3.16c-0.571-0.067-1.137-0.166-1.697-0.296l-1.325,2.875l-2.895-1.05l0.826-3.043
	c-0.515-0.255-1.02-0.545-1.504-0.861l-2.217,2.232l-2.355-1.978l1.799-2.548c-0.402-0.425-0.782-0.871-1.137-1.335l-2.813,1.325
	l-1.54-2.666l2.538-1.763c-0.236-0.54-0.44-1.093-0.611-1.657l-3.068,0.275l-0.535-3.027l2.977-0.785
	c-0.034-0.591-0.034-1.183,0-1.773l-2.977-0.785l0.535-3.027l3.068,0.275c0.173-0.561,0.377-1.121,0.611-1.657l-2.538-1.763
	l1.54-2.66l2.813,1.325c0.357-0.469,0.734-0.917,1.137-1.335l-1.799-2.548l2.355-1.983l2.217,2.232
	C53.75,48.032,54.252,47.744,54.77,47.486z M62.516,46.915l-0.255-3.083h-1.192l-0.255,3.083c-1.111,0.066-2.192,0.255-3.221,0.561
	l-1.294-2.803l-1.122,0.408l0.816,2.981c-1.004,0.435-1.955,0.984-2.834,1.636l-2.176-2.192l-0.912,0.765l1.784,2.523
	c-0.793,0.753-1.498,1.594-2.1,2.508l-2.803-1.32l-0.591,1.03l2.538,1.764c-0.491,0.977-0.868,2.009-1.122,3.073l-3.073-0.28
	L44.5,58.739l2.987,0.785c-0.125,1.087-0.125,2.185,0,3.271l-2.992,0.791l0.204,1.172l3.083-0.285
	c0.253,1.064,0.63,2.096,1.121,3.073l-2.548,1.769l0.596,1.029l2.798-1.32c0.602,0.913,1.307,1.754,2.1,2.508l-1.784,2.528
	l0.912,0.764l2.176-2.196c0.879,0.652,1.83,1.201,2.834,1.636l-0.815,2.981l1.121,0.408l1.295-2.803
	c1.029,0.306,2.11,0.495,3.221,0.561l0.255,3.083h1.193l0.255-3.083c1.111-0.066,2.191-0.255,3.221-0.561l1.294,2.803l1.121-0.408
	l-0.815-2.981c1.004-0.435,1.955-0.984,2.834-1.636l2.176,2.191l0.912-0.765l-1.784-2.522c0.793-0.753,1.498-1.595,2.1-2.508
	l2.803,1.32l0.591-1.029l-2.538-1.764c0.491-0.978,0.867-2.009,1.121-3.073l3.073,0.28l0.204-1.172l-2.987-0.785
	c0.124-1.087,0.124-2.185,0-3.272l2.992-0.79l-0.204-1.172l-3.083,0.285c-0.254-1.064-0.63-2.096-1.122-3.073l2.543-1.764
	l-0.596-1.029l-2.798,1.32c-0.602-0.913-1.307-1.754-2.1-2.507l1.784-2.528l-0.912-0.765l-2.176,2.197
	c-0.879-0.652-1.83-1.202-2.834-1.636l0.815-2.982l-1.121-0.407l-1.294,2.803c-1.03-0.306-2.11-0.494-3.221-0.561L62.516,46.915z
	 M61.665,65.237c-2.252,0-4.077-1.825-4.077-4.077s1.825-4.077,4.077-4.077s4.077,1.825,4.077,4.077S63.917,65.237,61.665,65.237z
	 M61.665,64.218c1.689,0,3.058-1.369,3.058-3.058s-1.369-3.058-3.058-3.058l0,0c-1.689,0-3.058,1.369-3.058,3.058
	S59.976,64.218,61.665,64.218z M61.665,55.044c-1.407,0-2.548-1.141-2.548-2.548c0-1.407,1.141-2.548,2.548-2.548
	s2.548,1.141,2.548,2.548C64.213,53.903,63.072,55.044,61.665,55.044z M65.992,56.833c-1.013-0.978-1.042-2.592-0.063-3.606
	c0.978-1.013,2.592-1.042,3.605-0.063l0,0c1.014,0.978,1.042,2.592,0.064,3.606C68.62,57.783,67.005,57.811,65.992,56.833z
	 M67.781,61.16c0-1.407,1.141-2.548,2.548-2.548c1.407,0,2.548,1.141,2.548,2.548s-1.141,2.548-2.548,2.548
	C68.922,63.708,67.781,62.567,67.781,61.16z M65.992,65.487c0.978-1.013,2.592-1.042,3.606-0.064
	c1.013,0.979,1.042,2.593,0.063,3.606l0,0c-0.978,1.014-2.593,1.042-3.605,0.064C65.042,68.115,65.014,66.5,65.992,65.487z
	 M61.665,67.276c1.407,0,2.548,1.141,2.548,2.548c0,1.407-1.141,2.548-2.548,2.548s-2.548-1.141-2.548-2.548
	C59.117,68.417,60.258,67.276,61.665,67.276z M57.338,65.487c1.013,0.978,1.042,2.592,0.063,3.606
	c-0.978,1.013-2.592,1.042-3.605,0.063l0,0c-1.014-0.978-1.042-2.592-0.064-3.606C54.71,64.538,56.325,64.509,57.338,65.487z
	 M55.549,61.16c0,1.407-1.141,2.548-2.548,2.548c-1.407,0-2.548-1.141-2.548-2.548s1.141-2.548,2.548-2.548
	C54.408,58.612,55.549,59.753,55.549,61.16z M57.338,56.833c-0.978,1.013-2.592,1.042-3.606,0.064
	c-1.013-0.979-1.042-2.593-0.063-3.606c0.978-1.014,2.593-1.042,3.605-0.064C58.288,54.205,58.316,55.82,57.338,56.833
	L57.338,56.833z M61.665,54.025c0.844,0,1.529-0.685,1.529-1.529c0-0.844-0.685-1.529-1.529-1.529l0,0
	c-0.844,0-1.529,0.685-1.529,1.529C60.136,53.34,60.821,54.025,61.665,54.025z M66.711,56.114c0.575,0.618,1.543,0.652,2.161,0.077
	s0.652-1.543,0.077-2.161c-0.576-0.618-1.543-0.652-2.161-0.077C66.169,54.529,66.135,55.497,66.711,56.114z M68.8,61.16
	c0,0.844,0.685,1.529,1.529,1.529c0.844,0,1.529-0.685,1.529-1.529s-0.685-1.529-1.529-1.529C69.485,59.631,68.8,60.316,68.8,61.16z
	 M66.711,66.206c-0.618,0.575-0.652,1.543-0.077,2.161c0.576,0.617,1.543,0.652,2.161,0.076s0.652-1.543,0.076-2.161
	C68.296,65.665,67.329,65.63,66.711,66.206z M61.665,68.295c-0.844,0-1.529,0.685-1.529,1.529c0,0.844,0.685,1.529,1.529,1.529
	s1.529-0.685,1.529-1.529C63.194,68.98,62.509,68.295,61.665,68.295L61.665,68.295z M56.619,66.206
	c-0.575-0.618-1.543-0.652-2.161-0.077s-0.652,1.543-0.077,2.161c0.576,0.618,1.543,0.652,2.161,0.077
	C57.161,67.792,57.195,66.824,56.619,66.206z M54.53,61.16c0-0.844-0.685-1.529-1.529-1.529c-0.844,0-1.529,0.685-1.529,1.529
	s0.685,1.529,1.529,1.529C53.845,62.689,54.53,62.004,54.53,61.16z M56.619,56.114c0.618-0.575,0.652-1.543,0.077-2.161
	c-0.576-0.617-1.543-0.652-2.161-0.076l0,0c-0.618,0.576-0.652,1.543-0.076,2.161C55.034,56.656,56.001,56.69,56.619,56.114z
	 M122.58,52.572v0.005c0.444,0.036,0.887,0.086,1.326,0.153l0.765-1.993l0.989-1.855l1.982,0.494v2.105l-0.255,2.105
	c0.423,0.143,0.836,0.301,1.244,0.474l1.233-1.748l1.407-1.565l1.804,0.958l-0.51,2.039l-0.759,1.982
	c0.372,0.24,0.739,0.495,1.095,0.759l1.626-1.407l1.743-1.172l1.514,1.361l-0.983,1.86l-1.213,1.733
	c0.306,0.326,0.612,0.663,0.897,1.015l1.876-0.989l1.962-0.754l1.167,1.671l-1.376,1.585l-1.59,1.438
	c0.219,0.387,0.428,0.78,0.622,1.183l2.06-0.51l2.089-0.255l0.729,1.901l-1.717,1.208l-1.886,1.009
	c0.117,0.428,0.224,0.856,0.316,1.294l2.125,0.005l2.09,0.255l0.245,2.023l-1.962,0.754l-2.069,0.52
	c0.015,0.443,0.015,0.892,0,1.335l2.069,0.52l1.962,0.754l-0.245,2.023l-2.09,0.26h-2.125c-0.092,0.438-0.199,0.872-0.322,1.295
	l1.886,1.009l1.723,1.208l-0.729,1.901l-2.089-0.254l-2.06-0.51c-0.193,0.402-0.402,0.795-0.622,1.183l1.595,1.437l1.376,1.585
	l-1.172,1.671l-1.962-0.754l-1.875-0.994c-0.287,0.351-0.586,0.691-0.897,1.02l1.213,1.738l0.983,1.855l-1.514,1.361l-1.743-1.172
	l-1.626-1.407c-0.356,0.264-0.722,0.515-1.095,0.754l0.754,1.988l0.51,2.039l-1.799,0.958l-1.407-1.565l-1.233-1.748
	c-0.408,0.168-0.821,0.332-1.25,0.474l0.255,2.105v2.105l-1.977,0.494l-0.989-1.86l-0.765-1.988
	c-0.438,0.066-0.881,0.117-1.326,0.158l-0.265,2.116l-0.51,2.039h-2.039l-0.51-2.039l-0.265-2.121
	c-0.443-0.036-0.885-0.086-1.325-0.153l-0.765,1.993l-0.989,1.855l-1.982-0.494v-2.105l0.254-2.105
	c-0.422-0.142-0.835-0.3-1.244-0.474l-1.233,1.748l-1.406,1.565l-1.804-0.958l0.51-2.039l0.759-1.982
	c-0.377-0.24-0.739-0.495-1.096-0.76l-1.626,1.407l-1.743,1.172l-1.514-1.361l0.984-1.86l1.213-1.732
	c-0.311-0.332-0.612-0.668-0.897-1.015l-1.876,0.989l-1.962,0.754l-1.167-1.671l1.376-1.585l1.59-1.437
	c-0.22-0.388-0.429-0.78-0.622-1.183l-2.06,0.51l-2.09,0.255l-0.729-1.901l1.717-1.208l1.886-1.009
	c-0.117-0.428-0.225-0.856-0.316-1.295l-2.125-0.005l-2.089-0.255l-0.245-2.023l1.962-0.754l2.069-0.52
	c-0.015-0.443-0.015-0.892,0-1.335l-2.069-0.52l-1.962-0.754l0.245-2.023l2.089-0.26h2.125c0.092-0.438,0.199-0.872,0.321-1.294
	l-1.886-1.009l-1.723-1.208l0.729-1.901l2.09,0.255l2.06,0.51c0.193-0.403,0.402-0.795,0.622-1.183l-1.595-1.437l-1.376-1.585
	l1.172-1.671l1.962,0.754l1.876,0.994c0.287-0.351,0.586-0.69,0.897-1.02l-1.213-1.738l-0.984-1.855l1.514-1.361l1.743,1.172
	l1.626,1.407c0.356-0.265,0.719-0.52,1.096-0.754l-0.754-1.988l-0.509-2.039l1.799-0.958l1.406,1.565l1.233,1.748
	c0.408-0.168,0.821-0.332,1.25-0.474l-0.255-2.105v-2.105l1.977-0.494l0.989,1.86l0.765,1.988c0.438-0.066,0.881-0.117,1.325-0.158
	l0.265-2.115l0.51-2.039h2.039l0.51,2.039L122.58,52.572L122.58,52.572z M115.292,54.305c-0.933,0.275-1.835,0.617-2.702,1.019
	l-1.784-2.533l-0.703-0.78l-0.449,0.239l0.255,1.02l1.101,2.89c-0.831,0.487-1.625,1.036-2.375,1.642l-2.35-2.039l-0.871-0.586
	l-0.382,0.341l0.495,0.928l1.768,2.538c-0.697,0.678-1.343,1.407-1.931,2.182l-2.737-1.448l-0.979-0.377l-0.291,0.418l0.688,0.795
	l2.303,2.084c-0.512,0.815-0.961,1.667-1.346,2.548l-3.001-0.739l-1.04-0.127l-0.183,0.479L99.64,65.4l2.732,1.463
	c-0.299,0.916-0.529,1.853-0.688,2.803l-3.099,0.005l-1.039,0.127l-0.062,0.509l0.979,0.372l3.006,0.765
	c-0.07,0.958-0.07,1.921,0,2.88l-3.006,0.759l-0.979,0.377l0.062,0.504l1.039,0.127l3.099,0.005
	c0.158,0.948,0.393,1.886,0.688,2.803l-2.732,1.463l-0.866,0.601l0.188,0.479l1.04-0.127l3.007-0.744
	c0.383,0.884,0.831,1.737,1.34,2.554l-2.303,2.089l-0.688,0.79l0.291,0.418l0.979-0.377l2.737-1.448
	c0.59,0.775,1.237,1.504,1.937,2.182l-1.773,2.538l-0.495,0.928l0.382,0.341l0.866-0.586l2.355-2.039
	c0.75,0.605,1.544,1.154,2.375,1.642l-1.106,2.89l-0.255,1.02l0.454,0.239l0.703-0.78l1.784-2.538
	c0.867,0.408,1.769,0.749,2.702,1.019l-0.372,3.079v1.05l0.494,0.122l0.494-0.927l1.122-2.895c0.933,0.184,1.886,0.306,2.864,0.347
	l0.382,3.079l0.255,1.019h0.51l0.255-1.019l0.382-3.079c0.962-0.044,1.919-0.16,2.865-0.347l1.121,2.895l0.494,0.927l0.495-0.122
	v-1.05l-0.373-3.073c0.933-0.275,1.835-0.617,2.702-1.02l1.784,2.533l0.704,0.78l0.448-0.239l-0.255-1.02l-1.101-2.89
	c0.831-0.487,1.625-1.036,2.375-1.642l2.35,2.039l0.872,0.586l0.382-0.341l-0.495-0.928l-1.768-2.538
	c0.697-0.678,1.343-1.407,1.931-2.182l2.737,1.448l0.979,0.377l0.291-0.418l-0.688-0.795l-2.304-2.084
	c0.51-0.815,0.958-1.667,1.346-2.548l3.001,0.739l1.04,0.127l0.183-0.479l-0.861-0.601l-2.732-1.463
	c0.3-0.916,0.53-1.853,0.688-2.803l3.099-0.005l1.04-0.127l0.062-0.51l-0.979-0.373l-3.007-0.764c0.071-0.958,0.071-1.921,0-2.88
	l3.007-0.759l0.979-0.377l-0.062-0.504l-1.04-0.127l-3.099-0.005c-0.158-0.951-0.388-1.887-0.688-2.803l2.732-1.463l0.866-0.601
	l-0.188-0.479l-1.04,0.127l-3.007,0.744c-0.382-0.884-0.831-1.737-1.34-2.554l2.304-2.089l0.688-0.79l-0.291-0.418l-0.979,0.377
	l-2.737,1.448c-0.59-0.775-1.237-1.504-1.937-2.182l1.773-2.538l0.495-0.928l-0.382-0.341l-0.867,0.586l-2.354,2.039
	c-0.75-0.605-1.544-1.154-2.375-1.642l1.106-2.89l0.254-1.02l-0.453-0.239l-0.704,0.78l-1.784,2.538
	c-0.866-0.408-1.769-0.75-2.701-1.02l0.372-3.078v-1.05l-0.495-0.122l-0.494,0.928l-1.121,2.895
	c-0.933-0.184-1.886-0.306-2.865-0.347l-0.382-3.079l-0.255-1.019h-0.51l-0.255,1.019l-0.382,3.079
	c-0.979,0.046-1.937,0.163-2.864,0.347l-1.122-2.895l-0.494-0.928l-0.494,0.122v1.05L115.292,54.305L115.292,54.305z
	 M112.311,57.185c2.45-1.329,5.179-2.063,7.966-2.141v3.058c-2.25,0.075-4.453,0.666-6.437,1.728l-1.529-2.65V57.185L112.311,57.185
	z M113.738,57.607l0.51,0.887c1.584-0.721,3.277-1.175,5.01-1.34V56.13C117.346,56.302,115.479,56.802,113.738,57.607z
	 M111.429,57.694l1.529,2.65c-1.906,1.193-3.517,2.803-4.709,4.709l-2.65-1.529C107.063,61.155,109.059,59.159,111.429,57.694z
	 M111.088,59.142c-1.567,1.108-2.934,2.475-4.042,4.042l0.886,0.51c1.015-1.416,2.254-2.656,3.67-3.67L111.088,59.142
	L111.088,59.142z M105.089,64.407h-0.005l2.651,1.529c-1.063,1.985-1.653,4.188-1.728,6.438h-3.058
	C103.026,69.586,103.759,66.857,105.089,64.407L105.089,64.407z M105.511,65.834c-0.805,1.741-1.305,3.608-1.478,5.52h1.025
	c0.166-1.733,0.619-3.426,1.34-5.01L105.511,65.834z M102.953,73.392h3.063c0.077,2.248,0.663,4.45,1.723,6.437l-2.65,1.529
	C103.761,78.907,103.03,76.179,102.953,73.392z M104.034,74.412c0.172,1.913,0.671,3.782,1.478,5.525l0.887-0.51
	c-0.722-1.586-1.175-3.281-1.34-5.015H104.034z M105.599,82.24l2.65-1.529c1.192,1.906,2.803,3.517,4.709,4.709l-1.529,2.65
	C109.059,86.606,107.063,84.61,105.599,82.24z M107.046,82.582c1.108,1.567,2.475,2.934,4.042,4.042l0.51-0.887
	c-1.417-1.014-2.656-2.253-3.67-3.669L107.046,82.582L107.046,82.582z M112.311,88.58v0.005l1.529-2.65
	c1.985,1.061,4.188,1.652,6.437,1.728v3.058C117.49,90.643,114.761,89.91,112.311,88.58z M113.738,88.157
	c1.742,0.806,3.608,1.306,5.52,1.478v-1.024c-1.733-0.166-3.426-0.619-5.01-1.34L113.738,88.157z M121.296,90.716v-3.063
	c2.248-0.077,4.449-0.663,6.437-1.723l1.529,2.65C126.812,89.908,124.083,90.64,121.296,90.716z M122.315,89.635
	c1.913-0.171,3.782-0.671,5.525-1.478l-0.51-0.887c-1.586,0.722-3.28,1.175-5.015,1.34V89.635z M130.144,88.07l-1.529-2.65
	c1.906-1.192,3.517-2.803,4.709-4.709l2.65,1.529C134.511,84.61,132.514,86.606,130.144,88.07L130.144,88.07z M130.485,86.623
	c1.566-1.108,2.934-2.475,4.042-4.042l-0.887-0.51c-1.014,1.416-2.253,2.656-3.67,3.669L130.485,86.623z M136.484,81.358h0.005
	l-2.651-1.529c1.061-1.985,1.652-4.187,1.728-6.437h3.058C138.547,76.179,137.813,78.908,136.484,81.358z M136.062,79.931
	c0.806-1.741,1.306-3.609,1.478-5.52h-1.025c-0.166,1.733-0.619,3.426-1.34,5.01L136.062,79.931L136.062,79.931z M138.62,72.373
	h-3.063c-0.075-2.25-0.664-4.452-1.723-6.438l2.65-1.529C137.812,66.857,138.543,69.586,138.62,72.373z M137.54,71.354
	c-0.172-1.913-0.671-3.782-1.478-5.525l-0.887,0.51c0.722,1.586,1.174,3.281,1.34,5.015H137.54L137.54,71.354z M135.975,63.525
	l-2.65,1.529c-1.192-1.906-2.803-3.517-4.709-4.709l1.529-2.65C132.514,59.159,134.511,61.155,135.975,63.525L135.975,63.525z
	 M134.527,63.184c-1.108-1.567-2.476-2.934-4.042-4.042l-0.51,0.886c1.417,1.014,2.656,2.254,3.67,3.67L134.527,63.184
	L134.527,63.184z M121.296,55.044c2.786,0.077,5.515,0.808,7.966,2.136l-1.529,2.65c-1.985-1.06-4.188-1.649-6.437-1.723V55.044z
	 M127.84,57.603c-1.743-0.806-3.612-1.307-5.525-1.478v1.024c1.733,0.166,3.426,0.619,5.01,1.341l0.51-0.887H127.84z
	 M120.787,79.508c-3.659,0-6.626-2.966-6.626-6.626c0-3.659,2.967-6.625,6.626-6.625s6.625,2.966,6.625,6.625
	C127.412,76.542,124.446,79.508,120.787,79.508z M120.787,78.489c3.096,0,5.606-2.51,5.606-5.606c0-3.096-2.51-5.606-5.606-5.606
	s-5.606,2.51-5.606,5.606C115.18,75.979,117.69,78.489,120.787,78.489L120.787,78.489z M70.095,0h29.011l-0.377,0.525
	c0.29,0.357,0.57,0.714,0.835,1.091l3.95-1.478l1.019,1.763l-3.251,2.676c0.188,0.418,0.367,0.841,0.524,1.274l4.19-0.408
	l0.53,1.967l-3.833,1.748c0.077,0.449,0.132,0.902,0.178,1.361l4.154,0.693v2.039l-4.154,0.693
	c-0.046,0.459-0.102,0.917-0.178,1.361l3.833,1.749l-0.53,1.967l-4.19-0.407c-0.158,0.433-0.336,0.856-0.524,1.274l3.251,2.676
	l-1.019,1.763l-3.95-1.478c-0.265,0.377-0.545,0.739-0.835,1.091l2.446,3.43l-1.437,1.442l-3.43-2.446
	c-0.357,0.285-0.714,0.565-1.091,0.831l1.479,3.95l-1.764,1.02l-2.676-3.251c-0.417,0.188-0.84,0.367-1.274,0.525l0.408,4.189
	l-1.967,0.53l-1.748-3.833c-0.449,0.076-0.902,0.133-1.361,0.179l-0.693,4.153h-2.039l-0.693-4.153
	c-0.458-0.046-0.917-0.103-1.361-0.179l-1.748,3.833l-1.967-0.53l0.408-4.189c-0.434-0.158-0.856-0.336-1.274-0.525l-2.676,3.251
	l-1.763-1.02l1.478-3.95c-0.374-0.265-0.738-0.543-1.091-0.835l-3.43,2.446l-1.442-1.438l2.446-3.43
	c-0.285-0.357-0.565-0.714-0.831-1.091l-3.95,1.478l-1.02-1.763l3.251-2.676c-0.188-0.418-0.367-0.841-0.524-1.274l-4.19,0.407
	l-0.53-1.967l3.833-1.749c-0.076-0.448-0.132-0.902-0.178-1.361l-4.154-0.693v-2.039l4.154-0.693
	c0.046-0.459,0.102-0.917,0.178-1.361l-3.833-1.748l0.53-1.967l4.19,0.408c0.158-0.433,0.336-0.856,0.524-1.274l-3.251-2.676
	l1.02-1.763l3.95,1.478c0.265-0.377,0.545-0.739,0.836-1.091L70.095,0z M71.333,0l0.423,0.596c-0.634,0.7-1.21,1.45-1.723,2.243
	l-3.889-1.458l-0.168,0.295l3.206,2.64c-0.433,0.838-0.796,1.711-1.085,2.609l-4.128-0.397l-0.092,0.326l3.782,1.717
	c-0.198,0.923-0.321,1.861-0.367,2.804l-4.098,0.693v0.336l4.098,0.683c0.051,0.958,0.168,1.896,0.367,2.803l-3.782,1.723
	l0.092,0.326l4.128-0.397c0.29,0.898,0.653,1.771,1.085,2.609l-3.206,2.64l0.168,0.295l3.889-1.458
	c0.51,0.795,1.091,1.544,1.723,2.243l-2.411,3.379l0.24,0.239l3.379-2.411c0.7,0.634,1.45,1.21,2.243,1.723l-1.458,3.889
	l0.296,0.168l2.64-3.206c0.831,0.428,1.707,0.795,2.609,1.085l-0.397,4.128l0.326,0.092l1.717-3.781
	c0.913,0.199,1.851,0.321,2.803,0.367l0.688,4.098h0.337l0.683-4.098c0.958-0.051,1.896-0.168,2.803-0.367l1.723,3.781l0.326-0.092
	l-0.397-4.128c0.898-0.29,1.771-0.653,2.609-1.085l2.641,3.206l0.296-0.168l-1.458-3.889c0.795-0.509,1.544-1.09,2.243-1.723
	l3.379,2.411l0.24-0.239l-2.411-3.379c0.634-0.7,1.21-1.45,1.723-2.243l3.889,1.458l0.168-0.295l-3.206-2.64
	c0.433-0.839,0.796-1.711,1.085-2.609l4.129,0.397l0.091-0.326l-3.782-1.718c0.199-0.912,0.321-1.85,0.367-2.803l4.098-0.688v-0.336
	l-4.098-0.683c-0.051-0.958-0.168-1.896-0.367-2.803l3.782-1.723l-0.091-0.327l-4.129,0.398c-0.29-0.898-0.652-1.771-1.085-2.609
	l3.206-2.641l-0.168-0.295l-3.889,1.458c-0.51-0.795-1.091-1.544-1.723-2.242l0.422-0.596H71.333V0L71.333,0z M69.896,13.761h7.212
	c0.615,3.002,2.961,5.348,5.963,5.963v7.212C76.117,26.212,70.62,20.715,69.896,13.761L69.896,13.761z M76.303,0h6.769v4.74
	c-3.002,0.615-5.348,2.961-5.963,5.963h-7.212C70.347,6.365,72.692,2.447,76.303,0L76.303,0z M86.129,26.936v-7.212
	c3.002-0.615,5.348-2.961,5.963-5.963h7.211C98.58,20.715,93.083,26.212,86.129,26.936z M92.897,0
	c3.611,2.447,5.956,6.365,6.407,10.703h-7.211c-0.615-3.002-2.961-5.348-5.963-5.963V0H92.897z M71.073,14.78
	c1.053,5.569,5.409,9.926,10.979,10.979v-5.245c-2.741-0.847-4.887-2.993-5.734-5.734H71.073L71.073,14.78z M78.291,0
	c-3.767,1.946-6.429,5.518-7.217,9.684h5.245c0.847-2.741,2.993-4.887,5.734-5.733V0H78.291z M87.148,25.759
	c5.569-1.053,9.926-5.409,10.979-10.979h-5.245c-0.847,2.741-2.993,4.887-5.734,5.734V25.759z M90.91,0h-3.761v3.95
	c2.741,0.847,4.887,2.993,5.734,5.733h5.245C97.339,5.518,94.677,1.946,90.91,0L90.91,0z M84.6,17.329
	c-2.815,0-5.097-2.282-5.097-5.097s2.282-5.097,5.097-5.097s5.097,2.282,5.097,5.097S87.415,17.329,84.6,17.329z M84.6,16.31
	c2.252,0,4.077-1.826,4.077-4.078S86.852,8.155,84.6,8.155s-4.077,1.825-4.077,4.077S82.348,16.31,84.6,16.31z M64.463,106.087
	l-5.438-4.052l3.058-5.301l6.233,2.686c1.244-1.109,2.701-1.952,4.282-2.477l0.79-6.732h6.116l0.79,6.732
	c1.581,0.525,3.038,1.368,4.281,2.477l6.233-2.686l3.058,5.301l-5.438,4.052c0.336,1.631,0.336,3.313,0,4.943l5.438,4.052
	l-3.058,5.3l-6.233-2.686c-1.243,1.109-2.7,1.952-4.281,2.478l-0.79,6.732h-6.116l-0.79-6.732c-1.581-0.525-3.038-1.368-4.282-2.478
	l-6.233,2.687l-3.058-5.301l5.438-4.052C64.128,109.4,64.128,107.718,64.463,106.087z M79.371,97.729l-0.765-6.499h-4.322
	l-0.764,6.503c-1.912,0.51-3.619,1.524-4.99,2.88l-6.014-2.589l-2.156,3.741l5.25,3.914c-0.5,1.886-0.5,3.873,0,5.759l-5.25,3.914
	l2.156,3.741l6.014-2.589c1.387,1.377,3.108,2.369,4.995,2.88l0.765,6.503h4.317l0.765-6.503c1.911-0.51,3.618-1.524,4.989-2.88
	l6.014,2.589l2.156-3.741l-5.25-3.914c0.5-1.886,0.5-3.874,0-5.759l5.25-3.914l-2.156-3.741l-6.014,2.589
	c-1.385-1.379-3.107-2.372-4.995-2.88L79.371,97.729L79.371,97.729z M76.445,114.675c-3.378,0-6.116-2.738-6.116-6.116
	c0-3.377,2.738-6.116,6.116-6.116s6.116,2.738,6.116,6.116C82.562,111.937,79.823,114.675,76.445,114.675z M76.445,113.656
	c2.815,0,5.097-2.281,5.097-5.097c0-2.815-2.282-5.097-5.097-5.097s-5.097,2.282-5.097,5.097
	C71.349,111.375,73.63,113.656,76.445,113.656z M78.245,148.171l2.171,0.036l0.26,0.984l-1.86,1.116
	c0.056,0.321,0.102,0.647,0.127,0.979l2.089,0.596v1.02l-2.089,0.596c-0.025,0.332-0.072,0.658-0.127,0.979l1.86,1.122l-0.26,0.979
	l-2.171,0.035c-0.112,0.312-0.24,0.617-0.377,0.918l1.509,1.554l-0.51,0.887l-2.105-0.53c-0.189,0.27-0.39,0.532-0.601,0.785
	l1.055,1.896l-0.724,0.724l-1.896-1.055c-0.255,0.209-0.515,0.408-0.785,0.602l0.53,2.104l-0.887,0.51l-1.554-1.508
	c-0.301,0.138-0.606,0.265-0.918,0.376l-0.035,2.172l-0.984,0.26l-1.116-1.861c-0.321,0.056-0.647,0.102-0.979,0.127l-0.596,2.09
	h-1.02l-0.596-2.09c-0.331-0.026-0.658-0.071-0.979-0.127l-1.122,1.86l-0.979-0.26l-0.035-2.172
	c-0.312-0.111-0.617-0.239-0.918-0.376l-1.554,1.508l-0.887-0.51l0.53-2.104c-0.27-0.19-0.531-0.391-0.785-0.602l-1.896,1.055
	l-0.724-0.724l1.055-1.896c-0.209-0.255-0.408-0.516-0.602-0.785l-2.104,0.53l-0.51-0.887l1.509-1.554
	c-0.138-0.301-0.265-0.606-0.377-0.918l-2.171-0.035l-0.26-0.984l1.86-1.116c-0.056-0.321-0.102-0.647-0.127-0.979l-2.089-0.596
	v-1.02l2.089-0.596c0.025-0.332,0.072-0.657,0.127-0.979l-1.86-1.121l0.26-0.979l2.171-0.036c0.112-0.312,0.24-0.617,0.377-0.917
	l-1.509-1.555l0.51-0.887l2.104,0.53c0.194-0.27,0.393-0.53,0.602-0.785l-1.055-1.896l0.724-0.724l1.896,1.055
	c0.255-0.209,0.515-0.408,0.785-0.602l-0.53-2.105l0.887-0.51l1.554,1.509c0.301-0.138,0.606-0.266,0.918-0.377l0.035-2.171
	l0.984-0.26l1.116,1.86c0.321-0.056,0.647-0.102,0.979-0.127l0.596-2.089h1.02l0.596,2.089c0.331,0.026,0.658,0.072,0.979,0.127
	l1.122-1.86l0.979,0.26l0.035,2.171c0.312,0.111,0.617,0.239,0.918,0.377l1.554-1.509l0.887,0.51l-0.53,2.105
	c0.27,0.193,0.53,0.393,0.785,0.602l1.896-1.055l0.724,0.724l-1.055,1.896c0.209,0.255,0.408,0.515,0.601,0.785l2.105-0.53
	l0.51,0.887l-1.509,1.555C78.005,147.554,78.132,147.859,78.245,148.171z M55.549,152.391c0,6.193,5.02,11.213,11.213,11.213
	s11.213-5.02,11.213-11.213c0-6.192-5.02-11.212-11.213-11.212S55.549,146.198,55.549,152.391z M69.366,146.856l-1.529,2.66
	c-0.691-0.259-1.454-0.259-2.146,0l-1.534-2.66C65.806,146.076,67.717,146.076,69.366,146.856L69.366,146.856z M70.253,147.366
	c1.497,1.042,2.449,2.698,2.6,4.515h-3.063c-0.122-0.727-0.502-1.385-1.07-1.855l1.529-2.66H70.253z M63.271,147.366l1.539,2.66
	c-0.568,0.47-0.948,1.129-1.07,1.855h-3.073C60.817,150.063,61.772,148.407,63.271,147.366z M60.671,152.9h3.063
	c0.122,0.727,0.502,1.386,1.07,1.855l-1.529,2.66c-1.5-1.04-2.458-2.696-2.61-4.515H60.671z M64.157,157.925l1.529-2.66
	c0.691,0.259,1.454,0.259,2.146,0l1.534,2.66C67.717,158.706,65.806,158.706,64.157,157.925z M70.253,157.416l-1.539-2.66
	c0.568-0.47,0.948-1.129,1.07-1.855h3.073C72.706,154.719,71.751,156.375,70.253,157.416z M67.868,147.417
	c-0.729-0.161-1.483-0.161-2.212,0l0.535,0.928c0.377-0.051,0.764-0.051,1.142,0L67.868,147.417L67.868,147.417z M70.518,148.945
	l-0.535,0.928c0.234,0.301,0.428,0.632,0.571,0.989h1.07C71.4,150.15,71.023,149.495,70.518,148.945z M63.005,148.945
	c-0.505,0.55-0.882,1.205-1.106,1.917h1.07c0.143-0.357,0.336-0.688,0.571-0.989L63.005,148.945z M61.899,153.92
	c0.224,0.711,0.601,1.367,1.106,1.916l0.535-0.928c-0.235-0.301-0.428-0.634-0.571-0.988H61.899z M65.656,157.365
	c0.729,0.163,1.483,0.163,2.212,0l-0.535-0.928c-0.377,0.051-0.764,0.051-1.142,0L65.656,157.365L65.656,157.365z M70.518,155.836
	c0.505-0.549,0.882-1.205,1.106-1.916h-1.07c-0.143,0.356-0.336,0.688-0.571,0.988L70.518,155.836z M64.723,152.391
	c0-1.126,0.913-2.039,2.039-2.039s2.039,0.913,2.039,2.039s-0.913,2.039-2.039,2.039S64.723,153.517,64.723,152.391z
	 M65.742,152.391c0,0.563,0.457,1.02,1.02,1.02s1.02-0.457,1.02-1.02s-0.457-1.019-1.02-1.019S65.742,151.828,65.742,152.391z
	 M73.387,152.391c0-1.126,0.913-2.039,2.039-2.039c1.125,0,2.039,0.913,2.039,2.039s-0.913,2.039-2.039,2.039
	C74.3,154.429,73.387,153.517,73.387,152.391z M70.075,158.129c0.975-0.563,2.222-0.229,2.785,0.747
	c0.563,0.976,0.229,2.223-0.747,2.785l0,0c-0.976,0.563-2.222,0.229-2.785-0.747C68.765,159.939,69.099,158.693,70.075,158.129z
	 M63.449,158.129c0.976,0.563,1.31,1.81,0.747,2.785c-0.563,0.976-1.81,1.31-2.785,0.747l0,0c-0.975-0.563-1.31-1.81-0.747-2.785
	C61.227,157.901,62.474,157.566,63.449,158.129z M60.136,152.391c0,1.126-0.913,2.039-2.039,2.039c-1.125,0-2.039-0.913-2.039-2.039
	s0.913-2.039,2.039-2.039C59.223,150.352,60.136,151.265,60.136,152.391z M63.449,146.652c-0.975,0.563-2.222,0.229-2.785-0.747
	c-0.563-0.976-0.229-2.223,0.747-2.785c0.976-0.563,2.222-0.229,2.785,0.747C64.758,144.842,64.424,146.088,63.449,146.652
	L63.449,146.652z M70.075,146.652c-0.976-0.563-1.31-1.81-0.747-2.785c0.563-0.976,1.81-1.31,2.785-0.747
	c0.975,0.563,1.31,1.81,0.747,2.785C72.297,146.88,71.05,147.215,70.075,146.652L70.075,146.652z M74.407,152.391
	c0,0.563,0.457,1.02,1.02,1.02c0.563,0,1.019-0.457,1.019-1.02s-0.457-1.019-1.019-1.019
	C74.863,151.372,74.407,151.828,74.407,152.391z M70.584,159.011c-0.512,0.234-0.738,0.838-0.504,1.351
	c0.233,0.512,0.838,0.738,1.351,0.504c0.512-0.233,0.738-0.838,0.504-1.35C71.701,159.003,71.097,158.777,70.584,159.011z
	 M62.939,159.011c-0.476-0.302-1.107-0.162-1.41,0.314c-0.302,0.476-0.162,1.106,0.313,1.409c0.476,0.303,1.107,0.163,1.41-0.313
	C63.555,159.945,63.415,159.314,62.939,159.011L62.939,159.011z M59.117,152.391c0-0.563-0.457-1.019-1.02-1.019
	c-0.563,0-1.019,0.456-1.019,1.019s0.457,1.02,1.019,1.02C58.66,153.41,59.117,152.954,59.117,152.391z M62.939,145.77
	c0.512-0.233,0.738-0.838,0.504-1.351c-0.233-0.511-0.838-0.737-1.351-0.504s-0.738,0.838-0.504,1.35
	C61.822,145.778,62.427,146.004,62.939,145.77z M70.584,145.77c0.476,0.303,1.107,0.162,1.41-0.313
	c0.302-0.476,0.162-1.106-0.313-1.409l0,0c-0.476-0.303-1.107-0.162-1.41,0.313C69.968,144.836,70.108,145.467,70.584,145.77z
	 M123.488,114.324l-0.408-4.189l2.956-0.79l1.743,3.833c1.152-0.22,2.329-0.377,3.527-0.459l0.692-4.159h3.058l0.693,4.159
	c1.198,0.082,2.375,0.239,3.527,0.459l1.744-3.833l2.956,0.79l-0.408,4.189c1.126,0.393,2.227,0.846,3.288,1.366l2.676-3.252
	l2.649,1.529l-1.478,3.945c0.98,0.667,1.922,1.391,2.819,2.166l3.43-2.446l2.161,2.161l-2.446,3.43
	c0.775,0.897,1.499,1.838,2.166,2.819l3.944-1.478l1.529,2.65l-3.251,2.676c0.519,1.068,0.976,2.166,1.366,3.288l4.189-0.408
	l0.79,2.956l-3.833,1.743c0.219,1.152,0.377,2.329,0.458,3.527l4.159,0.692v3.058l-4.159,0.693
	c-0.084,1.184-0.238,2.361-0.458,3.527l3.833,1.744l-0.79,2.956l-4.189-0.408c-0.391,1.121-0.847,2.219-1.366,3.288l3.251,2.676
	l-1.529,2.649l-3.944-1.478c-0.667,0.98-1.391,1.922-2.166,2.819l2.446,3.43l-2.161,2.161l-3.43-2.446
	c-0.897,0.775-1.838,1.499-2.819,2.166l1.478,3.945l-2.649,1.529l-2.676-3.252c-1.068,0.52-2.167,0.976-3.288,1.366l0.408,4.19
	l-2.956,0.79l-1.744-3.833c-1.152,0.219-2.329,0.377-3.527,0.459l-0.693,4.159h-3.058l-0.692-4.159
	c-1.184-0.085-2.361-0.238-3.527-0.459l-1.743,3.833l-2.956-0.79l0.408-4.19c-1.122-0.39-2.219-0.846-3.288-1.366l-2.676,3.252
	l-2.65-1.529l1.478-3.945c-0.981-0.667-1.922-1.391-2.819-2.166l-3.43,2.446l-2.161-2.161l2.446-3.43
	c-0.775-0.897-1.499-1.838-2.166-2.819l-3.945,1.478l-1.529-2.649l3.252-2.676c-0.52-1.068-0.976-2.167-1.366-3.288l-4.189,0.408
	l-0.79-2.957l3.833-1.743c-0.22-1.167-0.373-2.344-0.459-3.527l-4.159-0.693v-3.058l4.159-0.692
	c0.082-1.198,0.239-2.375,0.459-3.527l-3.833-1.743l0.79-2.956l4.189,0.408c0.393-1.122,0.846-2.217,1.366-3.288l-3.252-2.676
	l1.529-2.65l3.945,1.478c0.667-0.98,1.391-1.922,2.166-2.819l-2.446-3.43l2.161-2.161l3.43,2.446
	c0.897-0.775,1.838-1.499,2.819-2.166l-1.478-3.945l2.65-1.529l2.676,3.252C121.269,115.17,122.366,114.714,123.488,114.324
	L123.488,114.324z M124.568,115.037c-1.606,0.51-3.155,1.157-4.628,1.922l-2.645-3.211l-1.172,0.678l1.458,3.899
	c-1.407,0.902-2.735,1.922-3.97,3.048l-3.39-2.421l-0.958,0.958l2.421,3.39c-1.126,1.235-2.146,2.563-3.048,3.97l-3.899-1.458
	l-0.678,1.172l3.211,2.65c-0.771,1.484-1.414,3.03-1.922,4.623l-4.139-0.403l-0.351,1.315l3.787,1.723
	c-0.355,1.632-0.572,3.291-0.647,4.959l-4.108,0.688v1.355l4.108,0.688c0.076,1.692,0.295,3.354,0.647,4.959l-3.787,1.723
	l0.356,1.315l4.134-0.403c0.51,1.605,1.157,3.154,1.922,4.628l-3.211,2.645l0.678,1.173l3.899-1.458
	c0.902,1.407,1.921,2.735,3.048,3.971l-2.421,3.389l0.958,0.958l3.39-2.421c1.238,1.123,2.566,2.143,3.97,3.048l-1.458,3.899
	l1.172,0.678l2.65-3.211c1.483,0.772,3.03,1.416,4.623,1.922l-0.403,4.138l1.315,0.352l1.723-3.787
	c1.605,0.352,3.262,0.571,4.959,0.647l0.688,4.108h1.356l0.688-4.108c1.692-0.076,3.354-0.295,4.959-0.647l1.722,3.787l1.315-0.356
	l-0.402-4.133c1.605-0.51,3.154-1.157,4.628-1.922l2.645,3.211l1.173-0.678l-1.458-3.899c1.407-0.902,2.735-1.922,3.971-3.048
	l3.389,2.421l0.958-0.958l-2.421-3.389c1.122-1.238,2.142-2.566,3.048-3.971l3.899,1.458l0.678-1.173l-3.211-2.649
	c0.772-1.483,1.415-3.03,1.921-4.623l4.138,0.403l0.352-1.315l-3.787-1.723c0.355-1.632,0.572-3.291,0.647-4.959l4.108-0.688v-1.355
	l-4.108-0.688c-0.076-1.668-0.292-3.328-0.647-4.959l3.787-1.723l-0.356-1.315l-4.133,0.403c-0.51-1.606-1.157-3.155-1.921-4.628
	l3.211-2.645l-0.678-1.172l-3.899,1.458c-0.902-1.407-1.922-2.735-3.048-3.97l2.421-3.39l-0.958-0.958l-3.389,2.421
	c-1.235-1.126-2.563-2.146-3.971-3.048l1.458-3.899l-1.173-0.678l-2.649,3.211c-1.484-0.771-3.03-1.414-4.623-1.922l0.402-4.139
	l-1.315-0.351l-1.722,3.787c-1.632-0.355-3.291-0.572-4.959-0.647l-0.688-4.108h-1.356l-0.688,4.108
	c-1.692,0.076-3.354,0.295-4.959,0.647l-1.723-3.787l-1.315,0.356L124.568,115.037L124.568,115.037z M126.902,140.572
	c-0.681,1.699-0.681,3.596,0,5.295l-17.267,9.964c-2.055-3.887-3.126-8.217-3.12-12.614c0-4.556,1.126-8.853,3.12-12.614
	l17.267,9.964V140.572z M127.922,138.803l-17.263-9.969c4.751-7.556,12.93-12.276,21.85-12.609v19.928
	C130.696,136.415,129.054,137.363,127.922,138.803z M127.922,147.63c1.132,1.439,2.774,2.389,4.587,2.65v19.928
	c-8.919-0.333-17.099-5.052-21.85-12.608L127.922,147.63z M134.547,150.28c1.813-0.261,3.456-1.21,4.587-2.65l17.262,9.97
	c-4.75,7.556-12.93,12.276-21.85,12.608V150.28z M140.154,145.867c0.683-1.701,0.683-3.6,0-5.3l17.268-9.964
	c2.055,3.887,3.126,8.217,3.119,12.614c0,4.556-1.126,8.853-3.119,12.614L140.154,145.867z M139.135,138.803
	c-1.132-1.439-2.774-2.388-4.587-2.65v-19.928c8.92,0.333,17.099,5.053,21.85,12.609L139.135,138.803L139.135,138.803z
	 M110.063,132.024c-1.669,3.495-2.533,7.319-2.528,11.192c-0.005,3.873,0.859,7.698,2.528,11.192l15.606-9.011
	c-0.397-1.427-0.397-2.936,0-4.362L110.063,132.024L110.063,132.024z M112.102,128.492l15.606,9.011
	c1.039-1.058,2.346-1.813,3.782-2.187V117.3C123.668,117.912,116.542,122.024,112.102,128.492L112.102,128.492z M112.102,157.941
	c4.441,6.467,11.567,10.581,19.388,11.192v-18.017c-1.437-0.371-2.744-1.127-3.782-2.187L112.102,157.941L112.102,157.941z
	 M135.567,169.133c7.821-0.611,14.947-4.725,19.388-11.192l-15.606-9.011c-1.039,1.058-2.346,1.813-3.782,2.187V169.133
	L135.567,169.133z M156.993,154.409c1.669-3.495,2.533-7.319,2.528-11.192c0.005-3.874-0.859-7.698-2.528-11.192l-15.606,9.011
	c0.398,1.426,0.398,2.936,0,4.362L156.993,154.409L156.993,154.409z M154.955,128.492c-4.44-6.468-11.566-10.581-19.388-11.192
	v18.017c1.458,0.377,2.757,1.147,3.782,2.187L154.955,128.492z M133.528,147.804c-2.534,0-4.587-2.054-4.587-4.587
	c0-2.534,2.053-4.587,4.587-4.587c2.533,0,4.587,2.053,4.587,4.587C138.115,145.75,136.062,147.804,133.528,147.804z
	 M133.528,146.784c1.97,0,3.567-1.598,3.567-3.567c0-1.97-1.597-3.568-3.567-3.568c-1.971,0-3.568,1.598-3.568,3.568
	C129.96,145.187,131.558,146.784,133.528,146.784z M-0.005,123.666l1.407,0.204l2.421,1.157c0.45-0.605,0.935-1.184,1.453-1.733
	l-1.56-2.182l-0.861-2.604l1.565-1.315l2.416,1.3l1.88,1.917c0.63-0.415,1.284-0.793,1.958-1.132l-0.724-2.584l0.087-2.742
	l1.917-0.698l1.835,2.049l1.105,2.441c0.724-0.173,1.468-0.306,2.228-0.392l0.204-2.676l1.02-2.548h2.039l1.02,2.548l0.204,2.676
	c0.76,0.086,1.504,0.219,2.228,0.392l1.111-2.446l1.83-2.039l1.916,0.693l0.087,2.742l-0.724,2.584
	c0.678,0.342,1.325,0.719,1.958,1.132l1.88-1.917l2.416-1.3l1.564,1.315l-0.861,2.604l-1.56,2.187
	c0.518,0.549,1.002,1.128,1.453,1.733l2.421-1.162l2.716-0.393l1.02,1.764l-1.697,2.155l-2.212,1.519
	c0.301,0.693,0.561,1.402,0.775,2.125l2.666-0.265l2.686,0.561l0.356,2.008l-2.334,1.448l-2.6,0.667c0.044,0.754,0.044,1.51,0,2.264
	l2.6,0.662l2.334,1.453l-0.356,2.003l-2.686,0.561l-2.666-0.255c-0.215,0.722-0.474,1.43-0.775,2.121l2.212,1.519l1.697,2.155
	l-1.02,1.764l-2.716-0.393l-2.421-1.157c-0.45,0.605-0.935,1.185-1.453,1.733l1.56,2.182l0.861,2.604l-1.564,1.315l-2.416-1.3
	l-1.88-1.917c-0.63,0.415-1.284,0.793-1.958,1.132l0.724,2.583l-0.087,2.742l-1.916,0.698l-1.835-2.049l-1.106-2.441
	c-0.724,0.173-1.468,0.305-2.228,0.392l-0.204,2.676l-1.02,2.548h-2.039l-1.02-2.548l-0.204-2.676
	c-0.75-0.087-1.493-0.218-2.228-0.392l-1.111,2.446l-1.83,2.039l-1.917-0.693l-0.087-2.742l0.724-2.583
	c-0.673-0.336-1.325-0.714-1.958-1.132l-1.88,1.917l-2.416,1.3l-1.565-1.315l0.861-2.604l1.56-2.187
	c-0.518-0.549-1.002-1.128-1.453-1.733l-2.421,1.162l-1.407,0.203v-4.164l1.58-1.085c-0.3-0.693-0.559-1.403-0.775-2.125
	l-0.805,0.081v-4.495l0.031-0.005c-0.043-0.754-0.043-1.509,0-2.264l-0.031-0.005v-4.495l0.805,0.082
	c0.219-0.729,0.479-1.437,0.775-2.125l-1.58-1.09v-4.164V123.666z M-0.005,124.619v1.983l2.864,1.957
	c-0.557,1.144-0.993,2.343-1.3,3.578l-1.564-0.153v2.421l1.122,0.286c-0.13,1.264-0.13,2.538,0,3.802l-1.122,0.285v2.421
	l1.564-0.152c0.305,1.235,0.741,2.435,1.3,3.577l-2.864,1.957v1.983l0.897-0.133l3.267-1.564c0.713,1.05,1.529,2.028,2.446,2.91
	l-2.11,2.946l-0.515,1.565l0.622,0.524l1.453-0.774l2.538-2.589c1.02,0.738,2.12,1.375,3.287,1.9l-0.968,3.487l0.051,1.646
	l0.764,0.28l1.096-1.224l1.498-3.302c1.221,0.35,2.475,0.572,3.741,0.663l0.28,3.608l0.612,1.529h0.815l0.612-1.529l0.28-3.614
	c1.267-0.088,2.521-0.31,3.741-0.657l1.499,3.297l1.096,1.224l0.764-0.276l0.051-1.646l-0.968-3.487
	c1.158-0.518,2.26-1.155,3.287-1.9l2.538,2.589l1.453,0.774l0.622-0.524l-0.51-1.565l-2.115-2.946
	c0.914-0.881,1.734-1.854,2.446-2.905l3.262,1.56l1.631,0.234l0.408-0.703l-1.02-1.295l-2.981-2.044
	c0.561-1.142,0.994-2.344,1.3-3.577l3.603,0.356l1.611-0.336l0.143-0.805l-1.402-0.866l-3.506-0.902
	c0.132-1.264,0.132-2.538,0-3.802l3.506-0.902l1.402-0.867l-0.143-0.805l-1.611-0.336l-3.603,0.356
	c-0.307-1.234-0.743-2.434-1.3-3.578l2.987-2.039l1.019-1.3l-0.408-0.703l-1.631,0.234l-3.267,1.565
	c-0.713-1.05-1.529-2.029-2.446-2.91l2.11-2.946l0.515-1.565l-0.622-0.524l-1.453,0.774l-2.538,2.589
	c-1.02-0.738-2.12-1.375-3.287-1.901l0.968-3.486l-0.051-1.646l-0.764-0.28l-1.096,1.224l-1.499,3.302
	c-1.221-0.35-2.475-0.572-3.741-0.663l-0.28-3.608l-0.612-1.529h-0.815l-0.612,1.529l-0.28,3.613
	c-1.264,0.087-2.518,0.306-3.741,0.658l-1.498-3.297l-1.096-1.224l-0.764,0.275l-0.051,1.646l0.968,3.486
	c-1.158,0.519-2.26,1.155-3.287,1.901l-2.538-2.589l-1.453-0.774l-0.622,0.524l0.509,1.565l2.115,2.946
	c-0.913,0.881-1.733,1.855-2.446,2.905l-3.262-1.56l-0.902-0.137V124.619z M19.363,138.63c-1.126,0-2.039-0.913-2.039-2.039
	c0-1.125,0.913-2.039,2.039-2.039c1.125,0,2.039,0.913,2.039,2.039C21.401,137.717,20.488,138.63,19.363,138.63z M19.363,137.61
	c0.563,0,1.019-0.457,1.019-1.02c0-0.563-0.457-1.019-1.019-1.019c-0.563,0-1.02,0.457-1.02,1.019
	C18.343,137.154,18.8,137.61,19.363,137.61z M19.363,124.359c-1.126,0-2.039-0.913-2.039-2.039s0.913-2.039,2.039-2.039
	c1.125,0,2.039,0.913,2.039,2.039S20.488,124.359,19.363,124.359z M31.595,136.591c0-1.125,0.913-2.039,2.039-2.039
	s2.039,0.913,2.039,2.039c0,1.126-0.913,2.039-2.039,2.039S31.595,137.717,31.595,136.591z M19.363,148.823
	c1.125,0,2.039,0.913,2.039,2.039s-0.913,2.039-2.039,2.039c-1.126,0-2.039-0.913-2.039-2.039S18.237,148.823,19.363,148.823z
	 M7.13,136.591c0,1.126-0.913,2.039-2.039,2.039s-2.039-0.913-2.039-2.039c0-1.125,0.913-2.039,2.039-2.039
	S7.13,135.465,7.13,136.591z M19.363,123.34c0.563,0,1.019-0.457,1.019-1.02s-0.457-1.02-1.019-1.02c-0.563,0-1.02,0.457-1.02,1.02
	S18.8,123.34,19.363,123.34z M32.614,136.591c0,0.563,0.457,1.02,1.02,1.02s1.02-0.457,1.02-1.02c0-0.563-0.457-1.019-1.02-1.019
	S32.614,136.028,32.614,136.591z M19.363,149.842c-0.563,0-1.02,0.457-1.02,1.02s0.457,1.019,1.02,1.019
	c0.563,0,1.019-0.456,1.019-1.019S19.925,149.842,19.363,149.842z M6.111,136.591c0-0.563-0.457-1.019-1.02-1.019
	s-1.019,0.457-1.019,1.019c0,0.563,0.456,1.02,1.019,1.02S6.111,137.154,6.111,136.591z M7.829,148.125
	c-2.497-2.276-2.676-6.145-0.4-8.641c2.276-2.497,6.145-2.676,8.642-0.4c2.497,2.276,2.676,6.145,0.4,8.642
	C14.194,150.222,10.326,150.401,7.829,148.125z M7.829,125.057c2.275-2.497,6.145-2.676,8.641-0.4
	c2.497,2.276,2.676,6.145,0.4,8.642c-2.275,2.497-6.145,2.676-8.641,0.4S5.553,127.554,7.829,125.057L7.829,125.057z
	 M30.896,125.057c2.497,2.276,2.676,6.145,0.4,8.642c-2.276,2.497-6.145,2.676-8.641,0.4l0,0c-2.497-2.276-2.676-6.145-0.4-8.642
	C24.531,122.96,28.4,122.781,30.896,125.057z M30.896,148.125c-2.276,2.497-6.145,2.676-8.642,0.4s-2.676-6.145-0.4-8.642
	s6.145-2.676,8.642-0.4C32.993,141.759,33.172,145.628,30.896,148.125z M22.966,132.987c1.957,2.026,5.184,2.082,7.209,0.125
	c2.025-1.957,2.081-5.184,0.125-7.209c-1.956-2.025-5.184-2.081-7.209-0.125S21.01,130.963,22.966,132.987z M22.966,140.194
	c-2.025,1.956-2.081,5.184-0.125,7.209c1.956,2.026,5.184,2.082,7.209,0.125l0,0c2.025-1.957,2.081-5.184,0.125-7.209
	C28.219,138.294,24.991,138.238,22.966,140.194z M15.759,140.194c-1.956-2.025-5.184-2.081-7.209-0.125
	c-2.025,1.957-2.082,5.184-0.125,7.209c1.956,2.024,5.184,2.08,7.209,0.124C17.66,145.447,17.716,142.219,15.759,140.194
	L15.759,140.194z M15.759,132.987c2.025-1.956,2.081-5.184,0.125-7.209c-1.956-2.025-5.184-2.081-7.209-0.125
	c-2.025,1.957-2.081,5.184-0.125,7.21C10.506,134.888,13.734,134.944,15.759,132.987z M133.441,7.915l-0.041-2.13l0.983-0.265
	l1.04,1.871c0.545-0.102,1.101-0.178,1.662-0.219l0.52-2.074h1.02l0.52,2.074c0.561,0.041,1.122,0.112,1.661,0.219l1.041-1.871
	l0.983,0.265l-0.036,2.136c0.529,0.182,1.046,0.397,1.55,0.642l1.483-1.534l0.887,0.51l-0.591,2.054
	c0.464,0.316,0.907,0.658,1.331,1.02l1.834-1.096l0.719,0.719l-1.101,1.834c0.367,0.423,0.714,0.867,1.02,1.325l2.059-0.586
	l0.51,0.887l-1.534,1.483c0.244,0.5,0.458,1.02,0.642,1.549l2.141-0.036l0.255,0.984l-1.866,1.04
	c0.103,0.545,0.178,1.101,0.219,1.662l2.075,0.52v1.02l-2.075,0.52c-0.039,0.558-0.112,1.113-0.219,1.662l1.871,1.04l-0.265,0.984
	l-2.136-0.036c-0.183,0.528-0.398,1.046-0.642,1.549l1.534,1.483l-0.51,0.887l-2.054-0.591c-0.315,0.464-0.657,0.907-1.02,1.33
	l1.096,1.835l-0.719,0.719l-1.834-1.101c-0.423,0.367-0.867,0.713-1.325,1.019l0.586,2.059l-0.887,0.51l-1.483-1.534
	c-0.503,0.245-1.021,0.459-1.55,0.642l0.036,2.141l-0.983,0.254l-1.041-1.865c-0.545,0.102-1.1,0.179-1.661,0.219l-0.52,2.074h-1.02
	l-0.52-2.074c-0.558-0.039-1.113-0.112-1.662-0.219l-1.04,1.871l-0.983-0.265l0.036-2.136c-0.528-0.183-1.046-0.397-1.55-0.642
	l-1.483,1.534l-0.887-0.51l0.591-2.054c-0.458-0.316-0.907-0.658-1.331-1.019l-1.834,1.096l-0.719-0.719l1.101-1.835
	c-0.367-0.423-0.714-0.866-1.02-1.325l-2.059,0.586l-0.51-0.887l1.534-1.483c-0.245-0.503-0.459-1.02-0.642-1.549l-2.141,0.036
	l-0.255-0.984l1.866-1.04c-0.102-0.545-0.178-1.101-0.219-1.662l-2.075-0.52v-1.02l2.075-0.52c0.041-0.561,0.112-1.122,0.219-1.662
	l-1.871-1.04l0.265-0.984l2.136,0.036c0.183-0.529,0.397-1.046,0.642-1.549l-1.534-1.483l0.51-0.887l2.054,0.592
	c0.315-0.464,0.657-0.907,1.02-1.331l-1.096-1.834l0.719-0.719l1.834,1.101c0.423-0.367,0.867-0.713,1.326-1.019l-0.586-2.059
	l0.887-0.51l1.483,1.534c0.503-0.245,1.021-0.46,1.549-0.642L133.441,7.915L133.441,7.915z M138.115,34.657
	c7.318,0,13.251-5.933,13.251-13.251c0-7.319-5.933-13.251-13.251-13.251s-13.251,5.933-13.251,13.251
	C124.864,28.725,130.797,34.657,138.115,34.657z M138.115,30.07c-4.785,0-8.665-3.879-8.665-8.664s3.879-8.665,8.665-8.665
	s8.665,3.879,8.665,8.665S142.9,30.07,138.115,30.07z M138.115,29.051c4.222,0,7.645-3.423,7.645-7.645
	c0-4.223-3.423-7.645-7.645-7.645s-7.645,3.422-7.645,7.645C130.47,25.628,133.893,29.051,138.115,29.051z M138.115,24.974
	c-1.971,0-3.568-1.597-3.568-3.567c0-1.971,1.597-3.568,3.568-3.568s3.568,1.597,3.568,3.568
	C141.683,23.376,140.086,24.974,138.115,24.974z M138.115,23.955c1.408,0,2.548-1.141,2.548-2.548s-1.141-2.548-2.548-2.548
	s-2.548,1.141-2.548,2.548S136.708,23.955,138.115,23.955z M138.115,16.819c-0.563,0-1.02-0.457-1.02-1.02s0.457-1.02,1.02-1.02
	s1.02,0.457,1.02,1.02S138.678,16.819,138.115,16.819z M142.702,21.406c0-0.563,0.457-1.02,1.02-1.02s1.019,0.457,1.019,1.02
	c0,0.563-0.456,1.019-1.019,1.019S142.702,21.969,142.702,21.406z M138.115,25.993c0.563,0,1.02,0.456,1.02,1.02
	c0,0.563-0.457,1.019-1.02,1.019s-1.02-0.457-1.02-1.019C137.096,26.449,137.552,25.993,138.115,25.993z M133.528,21.406
	c0,0.563-0.457,1.019-1.02,1.019s-1.019-0.457-1.019-1.019c0-0.563,0.456-1.02,1.019-1.02S133.528,20.843,133.528,21.406z
	 M157.957,48.821l-0.917-1.993l0.831-0.601l1.606,1.488c0.204-0.087,0.418-0.153,0.637-0.204l0.428-2.151h1.02l0.428,2.146
	c0.219,0.051,0.434,0.123,0.637,0.204l1.606-1.478l0.826,0.596l-0.918,1.988c0.153,0.168,0.281,0.352,0.397,0.541l2.171-0.255
	l0.316,0.968l-1.911,1.07c0.021,0.224,0.021,0.443,0,0.667l1.911,1.07l-0.316,0.968l-2.171-0.254
	c-0.117,0.193-0.25,0.377-0.392,0.54l0.917,1.993l-0.831,0.602l-1.606-1.488c-0.204,0.086-0.418,0.153-0.637,0.204l-0.428,2.151
	h-1.02l-0.428-2.146c-0.219-0.051-0.434-0.123-0.637-0.204l-1.606,1.478l-0.826-0.596l0.918-1.987
	c-0.147-0.169-0.28-0.35-0.397-0.541l-2.171,0.255l-0.316-0.968l1.911-1.07c-0.018-0.222-0.018-0.445,0-0.667l-1.911-1.071
	l0.316-0.968l2.171,0.255C157.681,49.168,157.814,48.984,157.957,48.821L157.957,48.821z M161.05,54.025
	c1.408,0,2.548-1.141,2.548-2.548s-1.141-2.548-2.548-2.548s-2.548,1.141-2.548,2.548S159.643,54.025,161.05,54.025z M38.592,91.333
	l-0.306-1.07l0.887-0.51l0.77,0.8c0.346-0.132,0.705-0.226,1.07-0.28l0.265-1.081h1.02l0.27,1.081
	c0.367,0.051,0.724,0.153,1.065,0.28l0.77-0.795l0.887,0.509l-0.306,1.07c0.286,0.229,0.545,0.489,0.775,0.775l1.07-0.306
	l0.51,0.887l-0.795,0.77c0.127,0.341,0.224,0.698,0.28,1.07l1.081,0.265v1.019l-1.081,0.27c-0.054,0.364-0.148,0.722-0.28,1.065
	l0.795,0.77l-0.51,0.887l-1.07-0.306c-0.229,0.286-0.489,0.545-0.775,0.775l0.306,1.07l-0.887,0.51l-0.77-0.795
	c-0.341,0.127-0.698,0.224-1.07,0.28l-0.265,1.081h-1.02l-0.27-1.081c-0.362-0.051-0.724-0.153-1.065-0.28l-0.77,0.795l-0.887-0.51
	l0.306-1.07c-0.285-0.229-0.545-0.489-0.774-0.775l-1.071,0.306l-0.509-0.887l0.795-0.77c-0.132-0.345-0.226-0.704-0.28-1.07
	l-1.081-0.265v-1.019l1.081-0.27c0.051-0.367,0.153-0.724,0.28-1.065l-0.795-0.77l0.509-0.887l1.071,0.306
	c0.229-0.286,0.489-0.545,0.774-0.775V91.333z M39.688,91.812c-0.572,0.345-1.052,0.824-1.396,1.396l-0.071,0.127
	c-0.682,1.227-0.682,2.719,0,3.945l0.071,0.127c0.345,0.572,0.824,1.052,1.396,1.396l0.127,0.072c1.227,0.683,2.719,0.683,3.945,0
	l0.127-0.072c0.573-0.344,1.052-0.824,1.396-1.396l0.071-0.127c0.683-1.226,0.683-2.718,0-3.945l-0.071-0.127
	c-0.345-0.572-0.824-1.052-1.396-1.396L43.76,91.74c-1.226-0.683-2.718-0.683-3.945,0L39.688,91.812z M41.788,98.366
	c-1.689,0-3.058-1.369-3.058-3.058c0-1.689,1.369-3.058,3.058-3.058c1.688,0,3.058,1.369,3.058,3.058
	C44.846,96.997,43.477,98.366,41.788,98.366z M41.788,97.347c1.126,0,2.039-0.913,2.039-2.039c0-1.126-0.913-2.039-2.039-2.039
	s-2.039,0.913-2.039,2.039C39.75,96.434,40.662,97.347,41.788,97.347z M183.476,98.967l-1.937,2.854l-3.659-1.789l1.325-4.113
	c-0.546-0.386-1.069-0.804-1.565-1.253l-3.705,2.217l-2.569-3.17l2.966-3.191c-0.326-0.576-0.611-1.172-0.866-1.794l-4.307,0.372
	l-0.917-3.975l4.052-1.565c-0.04-0.662-0.04-1.326,0-1.988l-4.052-1.564l0.917-3.976l4.307,0.372
	c0.251-0.615,0.541-1.214,0.866-1.794l-2.966-3.19l2.569-3.17l3.705,2.217c0.495-0.449,1.02-0.867,1.565-1.254L177.88,65.1
	l3.664-1.784l1.932,2.849V98.967L183.476,98.967z M183.476,97.168V67.964l-2.273-3.354l-2.089,1.02l1.289,4.011
	c-0.945,0.599-1.822,1.3-2.615,2.089l-3.608-2.161l-1.468,1.809l2.88,3.104c-0.586,0.94-1.069,1.942-1.438,2.987l-4.2-0.357
	l-0.524,2.273l3.939,1.524c-0.119,1.101-0.119,2.212,0,3.313l-3.939,1.529l0.524,2.268l4.2-0.356
	c0.369,1.045,0.851,2.046,1.438,2.986l-2.88,3.109l1.468,1.804l3.608-2.156c0.793,0.788,1.67,1.487,2.615,2.084l-1.295,4.006
	l2.095,1.02L183.476,97.168L183.476,97.168z M183.476,70.885v2.91l-1.814-1.937C182.239,71.485,182.846,71.159,183.476,70.885z
	 M183.476,82.444l-7.222,3.384c-1.274-4.842,0.392-9.974,4.271-13.139l2.951,5.352V82.444z M183.476,94.248
	c-3.115-1.364-5.559-3.914-6.789-7.084l6.789-1.3V94.248z M183.476,72.006l-0.198,0.102l0.198,0.204V72.006z M183.476,81.328V80.13
	l-3.211-5.831c-2.638,2.641-3.855,6.383-3.277,10.071L183.476,81.328L183.476,81.328z M183.476,93.127v-6.234l-5.336,1.025
	C179.307,90.187,181.18,92.014,183.476,93.127z M-0.005,66.165l0.51,0.744c0.636-0.186,1.283-0.332,1.937-0.438l0.612-4.291H7.13
	l0.612,4.291c0.663,0.107,1.31,0.255,1.937,0.438l2.446-3.598l3.66,1.789l-1.325,4.113c0.545,0.387,1.07,0.805,1.565,1.254
	l3.705-2.217l2.569,3.17l-2.966,3.19c0.326,0.576,0.612,1.172,0.867,1.794l4.306-0.372l0.918,3.976l-4.052,1.564
	c0.041,0.663,0.041,1.325,0,1.988l4.052,1.565L24.505,89.1l-4.306-0.372c-0.254,0.614-0.543,1.213-0.867,1.794l2.966,3.191
	l-2.569,3.17l-3.705-2.217c-0.495,0.448-1.02,0.866-1.565,1.253l1.325,4.113l-3.665,1.784l-2.436-3.593
	c-0.632,0.183-1.279,0.331-1.937,0.438l-0.617,4.292H3.053l-0.612-4.292c-0.654-0.106-1.3-0.253-1.937-0.438l-0.51,0.744V66.165z
	 M-0.005,67.964v29.204l0.102-0.148c1.03,0.357,2.115,0.612,3.231,0.735l0.596,4.179h2.334l0.596-4.179
	c1.121-0.127,2.202-0.377,3.236-0.735l2.37,3.502l2.089-1.019l-1.29-4.012c0.945-0.6,1.822-1.3,2.615-2.089l3.608,2.161l1.468-1.809
	l-2.879-3.104c0.581-0.933,1.07-1.937,1.437-2.986l4.2,0.356l0.525-2.273l-3.939-1.524c0.117-1.101,0.117-2.212,0-3.313l3.939-1.529
	l-0.525-2.268l-4.2,0.357c-0.369-1.045-0.851-2.046-1.437-2.987l2.879-3.109l-1.468-1.804l-3.608,2.156
	c-0.793-0.788-1.67-1.487-2.615-2.084l1.294-4.006l-2.094-1.019l-2.37,3.497c-1.049-0.362-2.134-0.608-3.236-0.734l-0.596-4.18H3.92
	l-0.597,4.18c-1.121,0.127-2.202,0.377-3.236,0.734l-0.097-0.148H-0.005z M17.411,85.828l-8.287-3.884
	c-0.068-0.434-0.206-0.854-0.408-1.244l4.424-8.012C17.026,75.846,18.698,80.989,17.411,85.828z M16.977,87.168
	c-1.81,4.667-6.184,7.843-11.182,8.119l1.136-9.083c0.389-0.199,0.745-0.457,1.055-0.764L16.977,87.168z M-0.005,70.885
	c1.607-0.702,3.343-1.063,5.097-1.06c2.548,0,4.918,0.749,6.911,2.039L5.744,78.54c-0.432-0.07-0.873-0.07-1.305,0l-4.444-4.74
	V70.885z M-0.005,82.444v-4.409l1.468,2.666c-0.204,0.393-0.336,0.811-0.402,1.244L-0.005,82.444z M-0.005,94.248v-8.384
	l2.202-0.423c0.306,0.306,0.663,0.565,1.055,0.764l1.137,9.083C2.875,95.207,1.382,94.854-0.005,94.248z M5.092,79.508
	c1.689,0,3.058,1.369,3.058,3.058c0,1.689-1.369,3.058-3.058,3.058c-1.688,0-3.058-1.369-3.058-3.058
	C2.034,80.877,3.403,79.508,5.092,79.508z M5.092,80.527c-1.126,0-2.039,0.913-2.039,2.039c0,1.125,0.913,2.039,2.039,2.039
	s2.039-0.913,2.039-2.039C7.13,81.44,6.218,80.527,5.092,80.527z M-0.005,72.006v0.306l4.832,5.163c0.179-0.01,0.357-0.01,0.53,0
	l5.03-5.372c-1.641-0.832-3.456-1.263-5.295-1.259C3.267,70.844,1.534,71.262-0.005,72.006z M-0.005,81.328l0.173-0.082
	c0.046-0.173,0.102-0.342,0.163-0.504l-0.336-0.612V81.328z M-0.005,93.127c1.004,0.484,2.09,0.83,3.231,1.014l-0.917-7.304
	c-0.146-0.095-0.287-0.197-0.423-0.306l-1.891,0.357V93.127z M6.958,94.141c3.68-0.597,6.858-2.906,8.562-6.223l-7.222-1.387
	c-0.138,0.107-0.28,0.214-0.428,0.306L6.958,94.141z M16.677,84.371c0.578-3.686-0.638-7.425-3.272-10.066l-3.553,6.437
	c0.061,0.163,0.117,0.331,0.163,0.504L16.677,84.371z M70.095,183.48l-2.074-2.905l1.442-1.442l3.43,2.446
	c0.357-0.285,0.713-0.565,1.091-0.83l-1.478-3.95l1.763-1.019l2.676,3.251c0.418-0.188,0.841-0.367,1.274-0.524l-0.408-4.19
	l1.967-0.53l1.748,3.833c0.449-0.077,0.902-0.132,1.361-0.178l0.693-4.154h2.039l0.693,4.154c0.458,0.046,0.917,0.102,1.361,0.178
	l1.748-3.833l1.967,0.53l-0.408,4.19c0.434,0.158,0.856,0.336,1.274,0.524l2.676-3.251l1.764,1.019l-1.479,3.95
	c0.377,0.265,0.739,0.545,1.091,0.835l3.43-2.446l1.442,1.438l-2.074,2.904H70.095L70.095,183.48z M71.333,183.48h26.533
	l1.988-2.783l-0.24-0.239l-3.379,2.411c-0.7-0.635-1.449-1.21-2.243-1.723l1.458-3.889l-0.296-0.168l-2.641,3.206
	c-0.838-0.433-1.711-0.796-2.609-1.085l0.397-4.128l-0.326-0.092l-1.717,3.782c-0.923-0.198-1.861-0.321-2.803-0.367l-0.688-4.098
	h-0.337l-0.683,4.098c-0.958,0.051-1.896,0.168-2.803,0.367l-1.723-3.782l-0.326,0.092l0.397,4.128
	c-0.898,0.29-1.771,0.653-2.609,1.085l-2.64-3.206l-0.296,0.168l1.458,3.889c-0.795,0.51-1.544,1.091-2.243,1.723l-3.379-2.411
	l-0.24,0.239L71.333,183.48z M76.303,183.48c2.016-1.373,4.342-2.223,6.769-2.472v2.472H76.303z M92.897,183.48h-6.768v-2.472
	C88.626,181.264,90.93,182.14,92.897,183.48L92.897,183.48z M78.291,183.48h3.761v-1.295
	C80.742,182.432,79.474,182.868,78.291,183.48L78.291,183.48z M90.91,183.48c-1.184-0.612-2.451-1.049-3.761-1.295v1.295H90.91z
	 M182.859,0h-0.617l0.765,1.672c-1.067,0.899-2.056,1.889-2.956,2.956l-4.781-2.192l-0.841,1.152l3.567,3.863
	c-0.741,1.188-1.379,2.438-1.906,3.736l-5.218-0.612l-0.438,1.356l4.582,2.573c-0.336,1.358-0.554,2.743-0.653,4.139l-5.158,1.03
	V21.1l5.158,1.03c0.102,1.417,0.321,2.803,0.653,4.139l-4.587,2.573l0.443,1.356l5.219-0.612c0.53,1.295,1.167,2.548,1.906,3.736
	l-3.567,3.863l0.841,1.152l4.781-2.192c0.899,1.067,1.889,2.057,2.956,2.956l-2.191,4.781l1.151,0.841l1.509-1.392v1.355
	l-1.447,1.335l-2.472-1.794l2.222-4.842c-0.708-0.633-1.379-1.305-2.013-2.013l-4.842,2.222l-1.794-2.472l3.609-3.914
	c-0.479-0.821-0.911-1.668-1.295-2.538l-5.29,0.617l-0.943-2.905l4.643-2.609c-0.2-0.929-0.348-1.868-0.443-2.813l-5.224-1.044
	v-3.058l5.224-1.045c0.097-0.953,0.245-1.896,0.443-2.813l-4.643-2.609l0.943-2.905l5.29,0.617c0.382-0.872,0.815-1.717,1.295-2.538
	l-3.609-3.914l1.794-2.472l4.842,2.222c0.634-0.708,1.305-1.38,2.013-2.013L181.142,0H182.859z M183.476,26.859l-3.303,1.906
	c-1.187-2.634-1.798-5.49-1.794-8.379c-0.004-2.889,0.608-5.745,1.794-8.379l3.303,1.906V26.859z M183.476,6.901v2.304l-1.259-0.729
	C182.609,7.931,183.032,7.405,183.476,6.901z M183.476,33.873c-0.443-0.504-0.866-1.03-1.259-1.58l1.259-0.724V33.873z
	 M183.476,25.682V15.091l-2.803-1.621c-1.708,4.453-1.708,9.379,0,13.832L183.476,25.682z M31.809,183.48h1.101l1.585-3.455
	l-2.472-1.794l-3.914,3.608c-0.821-0.479-1.668-0.911-2.538-1.294l0.617-5.291l-2.905-0.942l-2.609,4.643
	c-0.929-0.201-1.868-0.348-2.813-0.443l-1.044-5.224h-3.058l-1.045,5.224c-0.943,0.097-1.886,0.245-2.813,0.443l-2.609-4.643
	l-2.905,0.942L5,180.545c-0.872,0.382-1.717,0.815-2.538,1.294l-2.467-2.272v2.635v-1.274l2.355,2.172
	c1.188-0.742,2.438-1.38,3.736-1.906l-0.612-5.22l1.356-0.438l2.574,4.582c1.358-0.335,2.743-0.554,4.138-0.652l1.03-5.158h1.427
	l1.03,5.158c1.417,0.102,2.803,0.321,4.139,0.652l2.574-4.587l1.355,0.443l-0.611,5.22c1.294,0.529,2.548,1.167,3.736,1.906
	l3.863-3.568l1.152,0.841L31.809,183.48L31.809,183.48z M183.476,124.619l-0.734-0.102l-0.407,0.703l1.02,1.295l0.122,0.086V124.619
	z M183.476,131.983l-2.038-0.203l-1.611,0.336l-0.143,0.805l1.401,0.867l2.391,0.611V131.983L183.476,131.983z M183.476,138.777
	l-2.396,0.612l-1.396,0.871l0.143,0.805l1.611,0.336l2.038-0.204V138.777z M183.476,146.58l-0.122,0.087l-1.02,1.295l0.407,0.703
	l0.734-0.102V146.58z M183.476,149.516l-1.31,0.189l-1.02-1.764l1.697-2.155l0.632-0.434V149.516L183.476,149.516z M183.476,142.223
	l-1.86,0.184l-2.686-0.56l-0.357-2.008l2.334-1.448l2.568-0.662V142.223z M183.476,135.454l-2.568-0.662l-2.334-1.448l0.357-2.002
	l2.686-0.561l1.86,0.179V135.454z M183.476,127.83l-0.632-0.434l-1.697-2.155l1.02-1.764l1.31,0.189V127.83L183.476,127.83z
	 M183.476,179.562v3.919h-2.334l-1.585-3.455l2.472-1.794l1.447,1.335V179.562L183.476,179.562z M183.476,180.922l-1.509-1.391
	l-1.151,0.841l1.427,3.109h1.233V180.922z"/>
</svg>
